<svg xmlns="http://www.w3.org/2000/svg" xmlns:xlink="http://www.w3.org/1999/xlink" xmlns:lucid="lucid" width="1240" height="746.67"><g transform="translate(-60 -13.333437500000002)" lucid:page-tab-id="0_0"><path d="M0 0h1760v1360H0z" fill="#fff"/><path d="M1040 200h120v40h-120z" fill="none"/><use xlink:href="#a" transform="matrix(1,0,0,1,1040,200) translate(42.716092592592595 23.555546666666665)"/><path d="M80 200h120v40H80z" stroke="#000" stroke-width="2" fill="#fff"/><use xlink:href="#b" transform="matrix(1,0,0,1,85,205) translate(4.18531222222223 18.555546666666665)"/><use xlink:href="#c" transform="matrix(1,0,0,1,85,205) translate(26.851922222222225 18.555546666666665)"/><use xlink:href="#d" transform="matrix(1,0,0,1,85,205) translate(37.66671 18.555546666666665)"/><use xlink:href="#e" transform="matrix(1,0,0,1,85,205) translate(52.48148777777778 18.555546666666665)"/><path d="M200 200h120v40H200z" stroke="#000" stroke-width="2" fill="#fff"/><use xlink:href="#b" transform="matrix(1,0,0,1,205,205) translate(4.18531222222223 18.555546666666665)"/><use xlink:href="#c" transform="matrix(1,0,0,1,205,205) translate(26.851922222222225 18.555546666666665)"/><use xlink:href="#f" transform="matrix(1,0,0,1,205,205) translate(37.66671 18.555546666666665)"/><use xlink:href="#e" transform="matrix(1,0,0,1,205,205) translate(52.48148777777778 18.555546666666665)"/><path d="M320 200h120v40H320z" stroke="#000" stroke-width="2" fill="#fff"/><use xlink:href="#b" transform="matrix(1,0,0,1,325,205) translate(4.18531222222223 18.555546666666665)"/><use xlink:href="#c" transform="matrix(1,0,0,1,325,205) translate(26.851922222222225 18.555546666666665)"/><use xlink:href="#g" transform="matrix(1,0,0,1,325,205) translate(37.66671 18.555546666666665)"/><use xlink:href="#e" transform="matrix(1,0,0,1,325,205) translate(52.48148777777778 18.555546666666665)"/><path d="M440 200h120v40H440z" stroke="#000" stroke-width="2" fill="#fff"/><use xlink:href="#h" transform="matrix(1,0,0,1,445,205) translate(46.13582462962963 18.555546666666665)"/><path d="M800 200h120v40H800z" stroke="#000" stroke-width="2" fill="#fff"/><use xlink:href="#i" transform="matrix(1,0,0,1,805,205) translate(4.18531222222223 18.555546666666665)"/><use xlink:href="#c" transform="matrix(1,0,0,1,805,205) translate(26.851922222222225 18.555546666666665)"/><use xlink:href="#g" transform="matrix(1,0,0,1,805,205) translate(37.66671 18.555546666666665)"/><use xlink:href="#e" transform="matrix(1,0,0,1,805,205) translate(52.48148777777778 18.555546666666665)"/><path d="M680 200h120v40H680z" stroke="#000" stroke-width="2" fill="#fff"/><use xlink:href="#j" transform="matrix(1,0,0,1,685,205) translate(4.926051111111121 18.555546666666665)"/><use xlink:href="#k" transform="matrix(1,0,0,1,685,205) translate(26.11118333333334 18.555546666666665)"/><use xlink:href="#f" transform="matrix(1,0,0,1,685,205) translate(36.92597111111112 18.555546666666665)"/><use xlink:href="#e" transform="matrix(1,0,0,1,685,205) translate(51.74074888888889 18.555546666666665)"/><path d="M560 200h120v40H560z" stroke="#000" stroke-width="2" fill="#fff"/><use xlink:href="#i" transform="matrix(1,0,0,1,565,205) translate(4.18531222222223 18.555546666666665)"/><use xlink:href="#c" transform="matrix(1,0,0,1,565,205) translate(26.851922222222225 18.555546666666665)"/><use xlink:href="#d" transform="matrix(1,0,0,1,565,205) translate(37.66671 18.555546666666665)"/><use xlink:href="#e" transform="matrix(1,0,0,1,565,205) translate(52.48148777777778 18.555546666666665)"/><path d="M920 200h120v40H920z" stroke="#000" stroke-width="2" fill="#fff"/><use xlink:href="#l" transform="matrix(1,0,0,1,925,205) translate(46.13582462962963 18.555546666666665)"/><path d="M1160 200h120v40h-120z" stroke="#000" stroke-width="2" fill="#fff"/><use xlink:href="#m" transform="matrix(1,0,0,1,1165,205) translate(46.13582462962963 18.555546666666665)"/><path d="M80 340h121v153H80z" fill-opacity="0"/><path d="M201 340h122v153H201z" fill="#fff"/><path d="M323 340h118v153H323zM441 340h118v153H441z" fill-opacity="0"/><path d="M80 340v153M201 340v153M323 340v153M441 340v153M559 340v153M80 340h121M80 493h121M201 340h122M201 493h122M323 340h118M323 493h118M441 340h118M441 493h118" stroke="#000" fill="none"/><use xlink:href="#n" transform="matrix(1,0,0,1,85,345) translate(20.21604938271605 32.38888888888888)"/><use xlink:href="#o" transform="matrix(1,0,0,1,85,345) translate(30.41358024691358 53.722222222222214)"/><use xlink:href="#p" transform="matrix(1,0,0,1,85,345) translate(8.709876543209873 75.05555555555556)"/><use xlink:href="#q" transform="matrix(1,0,0,1,85,345) translate(21.475308641975303 96.38888888888889)"/><use xlink:href="#r" transform="matrix(1,0,0,1,85,345) translate(26.932098765432094 117.72222222222223)"/><use xlink:href="#s" transform="matrix(1,0,0,1,206,345) translate(22.935763888888886 46.326388888888886)"/><use xlink:href="#t" transform="matrix(1,0,0,1,206,345) translate(32.8359375 67.15972222222223)"/><use xlink:href="#u" transform="matrix(1,0,0,1,206,345) translate(11.746527777777779 87.99305555555556)"/><use xlink:href="#v" transform="matrix(1,0,0,1,206,345) translate(2.727430555555557 108.8263888888889)"/><use xlink:href="#w" transform="matrix(1,0,0,1,206,345) translate(70.54861111111111 108.8263888888889)"/><use xlink:href="#n" transform="matrix(1,0,0,1,328,345) translate(18.71604938271605 32.38888888888888)"/><use xlink:href="#o" transform="matrix(1,0,0,1,328,345) translate(28.91358024691358 53.722222222222214)"/><use xlink:href="#x" transform="matrix(1,0,0,1,328,345) translate(9.16049382716048 75.05555555555556)"/><use xlink:href="#y" transform="matrix(1,0,0,1,328,345) translate(86.0493827160494 75.05555555555556)"/><use xlink:href="#z" transform="matrix(1,0,0,1,328,345) translate(3.7530864197530818 96.38888888888889)"/><use xlink:href="#A" transform="matrix(1,0,0,1,328,345) translate(6.7407407407407405 117.72222222222223)"/><use xlink:href="#n" transform="matrix(1,0,0,1,446,345) translate(18.71604938271605 53.72222222222222)"/><use xlink:href="#o" transform="matrix(1,0,0,1,446,345) translate(28.91358024691358 75.05555555555556)"/><use xlink:href="#B" transform="matrix(1,0,0,1,446,345) translate(13.08641975308641 96.3888888888889)"/><path d="M920 340h120v153H920z" stroke="#000" stroke-width="2" fill="#fff"/><use xlink:href="#C" transform="matrix(1,0,0,1,925,345) translate(19.275 53.5)"/><use xlink:href="#D" transform="matrix(1,0,0,1,925,345) translate(28.074999999999996 75.10000000000001)"/><use xlink:href="#E" transform="matrix(1,0,0,1,925,345) translate(14.049999999999997 96.70000000000002)"/><path d="M80 480h960v40H80z" stroke="#000" stroke-width="2"/><use xlink:href="#F" transform="matrix(1,0,0,1,85,485) translate(379.04999999999995 18.6)"/><use xlink:href="#G" transform="matrix(1,0,0,1,85,485) translate(426.65 18.6)"/><use xlink:href="#H" transform="matrix(1,0,0,1,85,485) translate(441.65 18.6)"/><use xlink:href="#I" transform="matrix(1,0,0,1,85,485) translate(518.0999999999999 18.6)"/><path d="M560 560h121v153H560z" fill-opacity="0"/><path d="M681 560h122v153H681z" fill="#fff"/><path d="M803 560h118v153H803zM921 560h118v153H921z" fill-opacity="0"/><path d="M560 560v153M681 560v153M803 560v153M921 560v153M1039 560v153M560 560h121M560 713h121M681 560h122M681 713h122M803 560h118M803 713h118M921 560h118M921 713h118" stroke="#000" fill="none"/><g><use xlink:href="#n" transform="matrix(1,0,0,1,565,565) translate(20.21604938271605 32.38888888888888)"/><use xlink:href="#o" transform="matrix(1,0,0,1,565,565) translate(30.41358024691358 53.722222222222214)"/><use xlink:href="#p" transform="matrix(1,0,0,1,565,565) translate(8.709876543209873 75.05555555555556)"/><use xlink:href="#q" transform="matrix(1,0,0,1,565,565) translate(21.475308641975303 96.38888888888889)"/><use xlink:href="#r" transform="matrix(1,0,0,1,565,565) translate(26.932098765432094 117.72222222222223)"/></g><g><use xlink:href="#s" transform="matrix(1,0,0,1,686,565) translate(22.935763888888886 46.326388888888886)"/><use xlink:href="#t" transform="matrix(1,0,0,1,686,565) translate(32.8359375 67.15972222222223)"/><use xlink:href="#u" transform="matrix(1,0,0,1,686,565) translate(11.746527777777779 87.99305555555556)"/><use xlink:href="#v" transform="matrix(1,0,0,1,686,565) translate(2.727430555555557 108.8263888888889)"/><use xlink:href="#w" transform="matrix(1,0,0,1,686,565) translate(70.54861111111111 108.8263888888889)"/></g><g><use xlink:href="#n" transform="matrix(1,0,0,1,808,565) translate(18.71604938271605 32.38888888888888)"/><use xlink:href="#o" transform="matrix(1,0,0,1,808,565) translate(28.91358024691358 53.722222222222214)"/><use xlink:href="#x" transform="matrix(1,0,0,1,808,565) translate(9.16049382716048 75.05555555555556)"/><use xlink:href="#y" transform="matrix(1,0,0,1,808,565) translate(86.0493827160494 75.05555555555556)"/><use xlink:href="#z" transform="matrix(1,0,0,1,808,565) translate(3.7530864197530818 96.38888888888889)"/><use xlink:href="#A" transform="matrix(1,0,0,1,808,565) translate(6.7407407407407405 117.72222222222223)"/></g><g><use xlink:href="#n" transform="matrix(1,0,0,1,926,565) translate(18.71604938271605 53.72222222222222)"/><use xlink:href="#o" transform="matrix(1,0,0,1,926,565) translate(28.91358024691358 75.05555555555556)"/><use xlink:href="#B" transform="matrix(1,0,0,1,926,565) translate(13.08641975308641 96.3888888888889)"/></g><path d="M1160 560h120v140h-120z" stroke="#000" stroke-width="2" fill="#fff"/><g><use xlink:href="#C" transform="matrix(1,0,0,1,1165,565) translate(19.275 47)"/><use xlink:href="#D" transform="matrix(1,0,0,1,1165,565) translate(28.074999999999996 68.60000000000001)"/><use xlink:href="#E" transform="matrix(1,0,0,1,1165,565) translate(14.049999999999997 90.20000000000002)"/></g><path d="M560 700h720v40H560z" stroke="#000" stroke-width="2"/><g><use xlink:href="#F" transform="matrix(1,0,0,1,565,705) translate(259.04999999999995 18.6)"/><use xlink:href="#J" transform="matrix(1,0,0,1,565,705) translate(306.65 18.6)"/><use xlink:href="#H" transform="matrix(1,0,0,1,565,705) translate(321.65 18.6)"/><use xlink:href="#I" transform="matrix(1,0,0,1,565,705) translate(398.09999999999997 18.6)"/></g><g><path d="M485 185.33V149h-5l10-9 10 9h-5v36.33z" stroke="#000" stroke-width="2"/></g><g><path d="M965 185.33V149h-5l10-9 10 9h-5v36.33z" stroke="#000" stroke-width="2"/></g><g><path d="M1205 185.33V149h-5l10-9 10 9h-5v36.33z" stroke="#000" stroke-width="2"/></g><path d="M440 40h110v80H440z" fill="#fff" fill-opacity="0"/><g><use xlink:href="#K" transform="matrix(1,0,0,1,445,45) translate(12.404607877604171 20.243092447916666)"/><use xlink:href="#L" transform="matrix(1,0,0,1,445,45) translate(45.55556666666667 20.243092447916666)"/><use xlink:href="#M" transform="matrix(1,0,0,1,445,45) translate(22.03566018880209 41.076373697916665)"/><use xlink:href="#N" transform="matrix(1,0,0,1,445,45) translate(25.525234798177088 61.909654947916664)"/></g><path d="M920 40h110v80H920z" fill="#fff" fill-opacity="0"/><g><use xlink:href="#K" transform="matrix(1,0,0,1,925,45) translate(3.2206030598958364 20.243092447916666)"/><use xlink:href="#O" transform="matrix(1,0,0,1,925,45) translate(36.371561848958336 20.243092447916666)"/><use xlink:href="#M" transform="matrix(1,0,0,1,925,45) translate(22.03566018880209 41.076373697916665)"/><use xlink:href="#N" transform="matrix(1,0,0,1,925,45) translate(25.525234798177088 61.909654947916664)"/></g><path d="M1160 33.33h120v93.34h-120z" fill="#fff" fill-opacity="0"/><g><use xlink:href="#P" transform="matrix(1,0,0,1,1165,38.3334375) translate(40.6250359375 27.243092447916666)"/><use xlink:href="#Q" transform="matrix(1,0,0,1,1165,38.3334375) translate(9.538085937499993 48.076373697916665)"/><use xlink:href="#R" transform="matrix(1,0,0,1,1165,38.3334375) translate(0.360379654947927 68.90965494791666)"/><use xlink:href="#N" transform="matrix(1,0,0,1,1165,38.3334375) translate(60.69008994140625 68.90965494791666)"/></g><defs><path d="M24 0v-54h51V0H24" id="S"/><g id="a"><use transform="matrix(0.04938259259259258,0,0,0.04938259259259258,0,0)" xlink:href="#S"/><use transform="matrix(0.04938259259259258,0,0,0.04938259259259258,4.938259259259258,0)" xlink:href="#S"/><use transform="matrix(0.04938259259259258,0,0,0.04938259259259258,9.876518518518516,0)" xlink:href="#S"/><use transform="matrix(0.04938259259259258,0,0,0.04938259259259258,14.814777777777774,0)" xlink:href="#S"/><use transform="matrix(0.04938259259259258,0,0,0.04938259259259258,19.753037037037032,0)" xlink:href="#S"/><use transform="matrix(0.04938259259259258,0,0,0.04938259259259258,24.69129629629629,0)" xlink:href="#S"/><use transform="matrix(0.04938259259259258,0,0,0.04938259259259258,29.629555555555548,0)" xlink:href="#S"/></g><path d="M136-208V0H84v-208H4v-40h212v40h-80" id="T"/><path d="M101-251c68 0 84 54 84 127C185-50 166 4 99 4S15-52 14-124c-1-75 17-127 87-127zm-1 216c37-5 36-46 36-89s4-89-36-89c-39 0-36 45-36 89 0 43-3 85 36 89" id="U"/><g id="b"><use transform="matrix(0.04938259259259258,0,0,0.04938259259259258,0,0)" xlink:href="#T"/><use transform="matrix(0.03456781481481481,0,0,0.03456781481481481,10.814787777777775,2.488882666666666)" xlink:href="#U"/></g><path d="M14-72v-43h91v43H14" id="V"/><use transform="matrix(0.04938259259259258,0,0,0.04938259259259258,0,0)" xlink:href="#V" id="c"/><path d="M99-251c69 0 84 53 88 123 5 99-61 162-144 118-15-8-21-25-26-45l46-6c4 31 50 33 63 7 7-15 12-36 12-60-9 18-29 28-54 28-48 0-72-32-72-82 0-55 31-83 87-83zm-1 128c24 0 37-16 37-39 0-27-10-51-37-51-25 0-35 19-35 45 0 25 10 45 35 45" id="W"/><use transform="matrix(0.04938259259259258,0,0,0.04938259259259258,0,0)" xlink:href="#W" id="d"/><path d="M231 0h-52l-39-155L100 0H48L-1-190h46L77-45c9-52 24-97 36-145h53l37 145 32-145h46" id="X"/><path d="M185-48c-13 30-37 53-82 52C43 2 14-33 14-96s30-98 90-98c62 0 83 45 84 108H66c0 31 8 55 39 56 18 0 30-7 34-22zm-45-69c5-46-57-63-70-21-2 6-4 13-4 21h74" id="Y"/><path d="M147 0L96-86 75-71V0H25v-261h50v150l67-79h53l-66 74L201 0h-54" id="Z"/><path d="M137-138c1-29-70-34-71-4 15 46 118 7 119 86 1 83-164 76-172 9l43-7c4 19 20 25 44 25 33 8 57-30 24-41C81-84 22-81 20-136c-2-80 154-74 161-7" id="aa"/><g id="e"><use transform="matrix(0.04938259259259258,0,0,0.04938259259259258,0,0)" xlink:href="#X"/><use transform="matrix(0.04938259259259258,0,0,0.04938259259259258,13.827125925925923,0)" xlink:href="#Y"/><use transform="matrix(0.04938259259259258,0,0,0.04938259259259258,23.70364444444444,0)" xlink:href="#Y"/><use transform="matrix(0.04938259259259258,0,0,0.04938259259259258,33.58016296296296,0)" xlink:href="#Z"/><use transform="matrix(0.04938259259259258,0,0,0.04938259259259258,43.456681481481475,0)" xlink:href="#aa"/></g><path d="M165-50V0h-47v-50H5v-38l105-160h55v161h33v37h-33zm-47-37l2-116L46-87h72" id="ab"/><use transform="matrix(0.04938259259259258,0,0,0.04938259259259258,0,0)" xlink:href="#ab" id="f"/><path d="M182-182c0 78-84 86-111 141h115V0H12c-6-101 99-100 120-180 1-22-12-31-33-32-23 0-32 14-35 34l-49-3c5-45 32-70 84-70 51 0 83 22 83 69" id="ac"/><use transform="matrix(0.04938259259259258,0,0,0.04938259259259258,0,0)" xlink:href="#ac" id="g"/><g id="h"><use transform="matrix(0.04938259259259258,0,0,0.04938259259259258,0,0)" xlink:href="#T"/><use transform="matrix(0.03456781481481481,0,0,0.03456781481481481,10.814787777777775,2.488882666666666)" xlink:href="#U"/></g><path d="M23 0v-37h61v-169l-59 37v-38l62-41h46v211h57V0H23" id="ad"/><g id="i"><use transform="matrix(0.04938259259259258,0,0,0.04938259259259258,0,0)" xlink:href="#T"/><use transform="matrix(0.03456781481481481,0,0,0.03456781481481481,10.814787777777775,2.488882666666666)" xlink:href="#ad"/></g><g id="j"><use transform="matrix(0.04938259259259258,0,0,0.04938259259259258,0,0)" xlink:href="#T"/><use transform="matrix(0.03456781481481481,0,0,0.03456781481481481,10.814787777777775,2.488882666666666)" xlink:href="#ad"/></g><use transform="matrix(0.04938259259259258,0,0,0.04938259259259258,0,0)" xlink:href="#V" id="k"/><g id="l"><use transform="matrix(0.04938259259259258,0,0,0.04938259259259258,0,0)" xlink:href="#T"/><use transform="matrix(0.03456781481481481,0,0,0.03456781481481481,10.814787777777775,2.488882666666666)" xlink:href="#ad"/></g><g id="m"><use transform="matrix(0.04938259259259258,0,0,0.04938259259259258,0,0)" xlink:href="#T"/><use transform="matrix(0.03456781481481481,0,0,0.03456781481481481,10.814787777777775,2.488882666666666)" xlink:href="#ac"/></g><path d="M275 0h-61l-44-196L126 0H64L0-248h53L97-49l45-199h58l43 199 44-199h52" id="ae"/><path d="M110-194c64 0 96 36 96 99 0 64-35 99-97 99-61 0-95-36-95-99 0-62 34-99 96-99zm-1 164c35 0 45-28 45-65 0-40-10-65-43-65-34 0-45 26-45 65 0 36 10 65 43 65" id="af"/><path d="M135-150c-39-12-60 13-60 57V0H25l-1-190h47c2 13-1 29 3 40 6-28 27-53 61-41v41" id="ag"/><path d="M25-224v-37h50v37H25zM25 0v-190h50V0H25" id="ah"/><path d="M135-194c87-1 58 113 63 194h-50c-7-57 23-157-34-157-59 0-34 97-39 157H25l-1-190h47c2 12-1 28 3 38 12-26 28-41 61-42" id="ai"/><path d="M195-6C206 82 75 100 31 46c-4-6-6-13-8-21l49-6c3 16 16 24 34 25 40 0 42-37 40-79-11 22-30 35-61 35-53 0-70-43-70-97 0-56 18-96 73-97 30 0 46 14 59 34l2-30h47zm-90-29c32 0 41-27 41-63 0-35-9-62-40-62-32 0-39 29-40 63 0 36 9 62 39 62" id="aj"/><g id="n"><use transform="matrix(0.04938271604938272,0,0,0.04938271604938272,0,0)" xlink:href="#ae"/><use transform="matrix(0.04938271604938272,0,0,0.04938271604938272,16.39506172839506,0)" xlink:href="#af"/><use transform="matrix(0.04938271604938272,0,0,0.04938271604938272,27.209876543209873,0)" xlink:href="#ag"/><use transform="matrix(0.04938271604938272,0,0,0.04938271604938272,34.123456790123456,0)" xlink:href="#Z"/><use transform="matrix(0.04938271604938272,0,0,0.04938271604938272,44,0)" xlink:href="#ah"/><use transform="matrix(0.04938271604938272,0,0,0.04938271604938272,48.93827160493827,0)" xlink:href="#ai"/><use transform="matrix(0.04938271604938272,0,0,0.04938271604938272,59.75308641975309,0)" xlink:href="#aj"/></g><path d="M85 4C-2 5 27-109 22-190h50c7 57-23 150 33 157 60-5 35-97 40-157h50l1 190h-47c-2-12 1-28-3-38-12 25-28 42-61 42" id="ak"/><path d="M135-194c53 0 70 44 70 98 0 56-19 98-73 100-31 1-45-17-59-34 3 33 2 69 2 105H25l-1-265h48c2 10 0 23 3 31 11-24 29-35 60-35zM114-30c33 0 39-31 40-66 0-38-9-64-40-64-56 0-55 130 0 130" id="al"/><g id="o"><use transform="matrix(0.04938271604938272,0,0,0.04938271604938272,0,0)" xlink:href="#aj"/><use transform="matrix(0.04938271604938272,0,0,0.04938271604938272,10.814814814814815,0)" xlink:href="#ag"/><use transform="matrix(0.04938271604938272,0,0,0.04938271604938272,17.728395061728396,0)" xlink:href="#af"/><use transform="matrix(0.04938271604938272,0,0,0.04938271604938272,28.543209876543205,0)" xlink:href="#ak"/><use transform="matrix(0.04938271604938272,0,0,0.04938271604938272,39.358024691358025,0)" xlink:href="#al"/></g><path d="M133-34C117-15 103 5 69 4 32 3 11-16 11-54c-1-60 55-63 116-61 1-26-3-47-28-47-18 1-26 9-28 27l-52-2c7-38 36-58 82-57s74 22 75 68l1 82c-1 14 12 18 25 15v27c-30 8-71 5-69-32zm-48 3c29 0 43-24 42-57-32 0-66-3-65 30 0 17 8 27 23 27" id="am"/><path d="M25 0v-261h50V0H25" id="an"/><path d="M190-63c-7 42-38 67-86 67-59 0-84-38-90-98-12-110 154-137 174-36l-49 2c-2-19-15-32-35-32-30 0-35 28-38 64-6 74 65 87 74 30" id="ao"/><path d="M115-3C79 11 28 4 28-45v-112H4v-33h27l15-45h31v45h36v33H77v99c-1 23 16 31 38 25v30" id="ap"/><g id="p"><use transform="matrix(0.04938271604938272,0,0,0.04938271604938272,0,0)" xlink:href="#am"/><use transform="matrix(0.04938271604938272,0,0,0.04938271604938272,9.876543209876544,0)" xlink:href="#al"/><use transform="matrix(0.04938271604938272,0,0,0.04938271604938272,20.69135802469136,0)" xlink:href="#al"/><use transform="matrix(0.04938271604938272,0,0,0.04938271604938272,31.506172839506174,0)" xlink:href="#an"/><use transform="matrix(0.04938271604938272,0,0,0.04938271604938272,36.44444444444445,0)" xlink:href="#ah"/><use transform="matrix(0.04938271604938272,0,0,0.04938271604938272,41.38271604938272,0)" xlink:href="#ao"/><use transform="matrix(0.04938271604938272,0,0,0.04938271604938272,51.25925925925927,0)" xlink:href="#am"/><use transform="matrix(0.04938271604938272,0,0,0.04938271604938272,61.13580246913581,0)" xlink:href="#ap"/><use transform="matrix(0.04938271604938272,0,0,0.04938271604938272,67.01234567901236,0)" xlink:href="#ah"/><use transform="matrix(0.04938271604938272,0,0,0.04938271604938272,71.95061728395063,0)" xlink:href="#af"/><use transform="matrix(0.04938271604938272,0,0,0.04938271604938272,82.76543209876544,0)" xlink:href="#ai"/></g><g id="q"><use transform="matrix(0.04938271604938272,0,0,0.04938271604938272,0,0)" xlink:href="#al"/><use transform="matrix(0.04938271604938272,0,0,0.04938271604938272,10.814814814814815,0)" xlink:href="#ag"/><use transform="matrix(0.04938271604938272,0,0,0.04938271604938272,17.728395061728396,0)" xlink:href="#af"/><use transform="matrix(0.04938271604938272,0,0,0.04938271604938272,28.543209876543205,0)" xlink:href="#ao"/><use transform="matrix(0.04938271604938272,0,0,0.04938271604938272,38.41975308641975,0)" xlink:href="#Y"/><use transform="matrix(0.04938271604938272,0,0,0.04938271604938272,48.2962962962963,0)" xlink:href="#aa"/><use transform="matrix(0.04938271604938272,0,0,0.04938271604938272,58.17283950617284,0)" xlink:href="#aa"/></g><path d="M135-194c52 0 70 43 70 98 0 56-19 99-73 100-30 1-46-15-58-35L72 0H24l1-261h50v104c11-23 29-37 60-37zM114-30c31 0 40-27 40-66 0-37-7-63-39-63s-41 28-41 65c0 36 8 64 40 64" id="aq"/><g id="r"><use transform="matrix(0.04938271604938272,0,0,0.04938271604938272,0,0)" xlink:href="#aq"/><use transform="matrix(0.04938271604938272,0,0,0.04938271604938272,10.814814814814815,0)" xlink:href="#Y"/><use transform="matrix(0.04938271604938272,0,0,0.04938271604938272,20.69135802469136,0)" xlink:href="#aj"/><use transform="matrix(0.04938271604938272,0,0,0.04938271604938272,31.506172839506174,0)" xlink:href="#ah"/><use transform="matrix(0.04938271604938272,0,0,0.04938271604938272,36.44444444444445,0)" xlink:href="#ai"/><use transform="matrix(0.04938271604938272,0,0,0.04938271604938272,47.25925925925927,0)" xlink:href="#aa"/></g><path d="M1264-420l196-1036h299L1436 0h-302L897-974 660 0H358L35-1456h299L531-422l240-1034h254" id="ar"/><path d="M579 20C257 20 58-214 66-551c8-331 182-551 511-551 324 0 514 231 514 572 0 319-198 550-512 550zm-2-888c-169 0-222 141-222 338 0 181 61 317 224 317 170 0 223-137 223-338 0-178-64-317-225-317" id="as"/><path d="M719-811c-143-24-279 1-319 103V0H111v-1082h273l8 129c74-124 180-175 331-136" id="at"/><path d="M504-434L400-330V0H111v-1536h289v851c106-137 222-264 333-397h347L689-631 1114 0H782" id="au"/><path d="M416 0H126v-1082h290V0zM271-1212c-92 0-162-61-162-150s68-149 162-149c93 0 162 60 162 149s-70 150-162 150" id="av"/><path d="M750-692c-1-124-48-174-173-175-81 0-142 35-183 104V0H105v-1082h272l9 125c77-97 181-145 311-145 244 0 342 151 342 403V0H750v-692" id="aw"/><path d="M505 20C221 18 69-239 69-549c0-302 153-553 438-553 119 0 211 41 277 122l12-102h262V-36c-8 305-208 458-520 462-160 1-335-76-403-170L263 80c72 81 159 121 262 121 172 1 260-107 243-294C701-18 614 20 505 20zm76-887c-165 0-223 147-223 339 0 172 66 314 221 314 88 0 151-33 189-99v-455c-39-66-101-99-187-99" id="ax"/><g id="s"><use transform="matrix(0.008680555555555556,0,0,0.008680555555555556,0,0)" xlink:href="#ar"/><use transform="matrix(0.008680555555555556,0,0,0.008680555555555556,15.277777777777779,0)" xlink:href="#as"/><use transform="matrix(0.008680555555555556,0,0,0.008680555555555556,25.329861111111118,0)" xlink:href="#at"/><use transform="matrix(0.008680555555555556,0,0,0.008680555555555556,31.814236111111114,0)" xlink:href="#au"/><use transform="matrix(0.008680555555555556,0,0,0.008680555555555556,41.31076388888889,0)" xlink:href="#av"/><use transform="matrix(0.008680555555555556,0,0,0.008680555555555556,46.02430555555556,0)" xlink:href="#aw"/><use transform="matrix(0.008680555555555556,0,0,0.008680555555555556,55.98090277777778,0)" xlink:href="#ax"/></g><path d="M463 20c-241-1-359-147-359-393v-709h289v699c0 113 51 169 154 169 98 0 165-34 202-102v-766h290V0H767l-8-110C688-23 589 20 463 20" id="ay"/><path d="M663-1102c295 0 422 250 422 571 0 300-141 549-420 551-109 0-198-38-265-114v510H111v-1498h268l10 106c70-84 161-126 274-126zm133 550c0-175-53-315-209-315-91 0-153 35-187 104v443c35 71 98 107 189 107 138 0 207-113 207-339" id="az"/><g id="t"><use transform="matrix(0.008680555555555556,0,0,0.008680555555555556,0,0)" xlink:href="#ax"/><use transform="matrix(0.008680555555555556,0,0,0.008680555555555556,10.147569444444445,0)" xlink:href="#at"/><use transform="matrix(0.008680555555555556,0,0,0.008680555555555556,16.319444444444443,0)" xlink:href="#as"/><use transform="matrix(0.008680555555555556,0,0,0.008680555555555556,26.37152777777778,0)" xlink:href="#ay"/><use transform="matrix(0.008680555555555556,0,0,0.008680555555555556,36.31944444444444,0)" xlink:href="#az"/></g><path d="M552-1102c254-4 435 134 435 383v469c1 103 15 180 43 233V0H738c-13-26-23-58-29-97C639-19 548 20 436 20 238 20 64-113 68-304c5-258 212-357 496-357h133c11-137-29-227-160-227-90 0-156 45-156 131H92c15-231 213-342 460-345zM357-325c0 76 61 124 142 124 88 0 168-45 198-105v-186H589c-152 2-232 51-232 167" id="aA"/><path d="M416 0H126v-1536h290V0" id="aB"/><path d="M355-556c-2 203 30 338 206 343 102 3 181-63 182-161h271C1001-128 821 17 566 20 242 24 66-212 66-554c0-320 184-548 498-548 262 0 451 167 450 423H743c-1-108-75-193-184-189-162 6-202 123-204 312" id="aC"/><path d="M457-330c2 83 25 111 111 112 32 0 60-2 85-7V-6c-57 17-115 26-175 26-203 0-310-102-310-307v-583H10v-212h158v-266h289v266h185v212H457v540" id="aD"/><g id="u"><use transform="matrix(0.008680555555555556,0,0,0.008680555555555556,0,0)" xlink:href="#aA"/><use transform="matrix(0.008680555555555556,0,0,0.008680555555555556,9.53125,0)" xlink:href="#az"/><use transform="matrix(0.008680555555555556,0,0,0.008680555555555556,19.539930555555557,0)" xlink:href="#az"/><use transform="matrix(0.008680555555555556,0,0,0.008680555555555556,29.54861111111111,0)" xlink:href="#aB"/><use transform="matrix(0.008680555555555556,0,0,0.008680555555555556,34.26215277777778,0)" xlink:href="#av"/><use transform="matrix(0.008680555555555556,0,0,0.008680555555555556,38.97569444444444,0)" xlink:href="#aC"/><use transform="matrix(0.008680555555555556,0,0,0.008680555555555556,48.24652777777778,0)" xlink:href="#aA"/><use transform="matrix(0.008680555555555556,0,0,0.008680555555555556,57.77777777777778,0)" xlink:href="#aD"/><use transform="matrix(0.008680555555555556,0,0,0.008680555555555556,63.78472222222223,0)" xlink:href="#av"/><use transform="matrix(0.008680555555555556,0,0,0.008680555555555556,68.49826388888889,0)" xlink:href="#as"/><use transform="matrix(0.008680555555555556,0,0,0.008680555555555556,78.55034722222221,0)" xlink:href="#aw"/></g><path d="M1031-175C952-60 797 20 609 20 287 20 60-206 72-543c12-330 180-559 505-559 309 0 482 214 477 537v118H365c15 134 115 234 263 234 111 0 198-40 261-121zM770-644c5-139-62-226-194-224-130 1-191 97-208 224h402" id="aE"/><path d="M529-185c94 0 168-33 168-114 0-35-18-63-53-83s-91-39-168-55C219-491 90-600 90-765c0-208 203-337 432-337 246 0 451 124 453 349H686c-2-91-62-143-165-143-86 0-151 41-153 117 0 32 16 57 46 77 63 43 257 69 335 100 151 60 229 153 229 291C978-13 554 93 282-28 162-81 60-190 56-344h274c5 106 86 159 199 159" id="aF"/><g id="v"><use transform="matrix(0.008680555555555556,0,0,0.008680555555555556,0,0)" xlink:href="#az"/><use transform="matrix(0.008680555555555556,0,0,0.008680555555555556,10.008680555555555,0)" xlink:href="#at"/><use transform="matrix(0.008680555555555556,0,0,0.008680555555555556,16.180555555555557,0)" xlink:href="#as"/><use transform="matrix(0.008680555555555556,0,0,0.008680555555555556,26.232638888888893,0)" xlink:href="#aC"/><use transform="matrix(0.008680555555555556,0,0,0.008680555555555556,35.50347222222223,0)" xlink:href="#aE"/><use transform="matrix(0.008680555555555556,0,0,0.008680555555555556,45.112847222222236,0)" xlink:href="#aF"/><use transform="matrix(0.008680555555555556,0,0,0.008680555555555556,54.25347222222222,0)" xlink:href="#aF"/></g><path d="M488 20C204 20 66-234 66-549c0-305 140-551 424-553 105 0 192 39 261 118v-552h290V0H780l-14-115C694-25 601 20 488 20zM355-528c0 176 51 314 207 314 89 0 152-38 189-113v-427c-36-75-98-113-187-113-139 0-209 113-209 339" id="aG"/><g id="w"><use transform="matrix(0.008680555555555556,0,0,0.008680555555555556,0,0)" xlink:href="#aE"/><use transform="matrix(0.008680555555555556,0,0,0.008680555555555556,9.609375,0)" xlink:href="#aw"/><use transform="matrix(0.008680555555555556,0,0,0.008680555555555556,19.56597222222222,0)" xlink:href="#aG"/><use transform="matrix(0.008680555555555556,0,0,0.008680555555555556,29.583333333333332,0)" xlink:href="#aF"/></g><g id="x"><use transform="matrix(0.04938271604938272,0,0,0.04938271604938272,0,0)" xlink:href="#ao"/><use transform="matrix(0.04938271604938272,0,0,0.04938271604938272,9.876543209876544,0)" xlink:href="#am"/><use transform="matrix(0.04938271604938272,0,0,0.04938271604938272,19.75308641975309,0)" xlink:href="#al"/><use transform="matrix(0.04938271604938272,0,0,0.04938271604938272,30.567901234567906,0)" xlink:href="#ap"/><use transform="matrix(0.04938271604938272,0,0,0.04938271604938272,36.44444444444445,0)" xlink:href="#am"/><use transform="matrix(0.04938271604938272,0,0,0.04938271604938272,46.320987654320994,0)" xlink:href="#ah"/><use transform="matrix(0.04938271604938272,0,0,0.04938271604938272,51.25925925925927,0)" xlink:href="#ai"/><use transform="matrix(0.04938271604938272,0,0,0.04938271604938272,62.074074074074076,0)" xlink:href="#aa"/></g><path d="M168-19C124 19 11 11 16-68c3-43 29-60 59-75-25-44-12-111 53-106 37 3 64 15 64 52 0 43-40 52-69 68 12 22 27 41 43 59 14-19 21-38 28-64l37 13c-8 29-19 52-34 74 12 10 32 16 52 10v35c-28 11-65-2-81-17zm-58-139c19-9 43-14 43-39 0-14-10-22-25-22-34 0-33 41-18 61zM60-68c-3 40 55 47 79 25-18-20-34-42-48-67-18 8-30 20-31 42" id="aH"/><use transform="matrix(0.04938271604938272,0,0,0.04938271604938272,0,0)" xlink:href="#aH" id="y"/><g id="z"><use transform="matrix(0.04938271604938272,0,0,0.04938271604938272,0,0)" xlink:href="#al"/><use transform="matrix(0.04938271604938272,0,0,0.04938271604938272,10.814814814814815,0)" xlink:href="#am"/><use transform="matrix(0.04938271604938272,0,0,0.04938271604938272,20.69135802469136,0)" xlink:href="#ag"/><use transform="matrix(0.04938271604938272,0,0,0.04938271604938272,27.604938271604947,0)" xlink:href="#ap"/><use transform="matrix(0.04938271604938272,0,0,0.04938271604938272,33.48148148148149,0)" xlink:href="#ah"/><use transform="matrix(0.04938271604938272,0,0,0.04938271604938272,38.41975308641976,0)" xlink:href="#ao"/><use transform="matrix(0.04938271604938272,0,0,0.04938271604938272,48.296296296296305,0)" xlink:href="#ah"/><use transform="matrix(0.04938271604938272,0,0,0.04938271604938272,53.23456790123457,0)" xlink:href="#al"/><use transform="matrix(0.04938271604938272,0,0,0.04938271604938272,64.0493827160494,0)" xlink:href="#am"/><use transform="matrix(0.04938271604938272,0,0,0.04938271604938272,73.92592592592594,0)" xlink:href="#ai"/><use transform="matrix(0.04938271604938272,0,0,0.04938271604938272,84.74074074074075,0)" xlink:href="#ap"/><use transform="matrix(0.04938271604938272,0,0,0.04938271604938272,90.61728395061729,0)" xlink:href="#aa"/></g><path d="M88-194c31-1 46 15 58 34l-1-101h50l1 261h-48c-2-10 0-23-3-31C134-8 116 4 84 4 32 4 16-41 15-95c0-56 19-97 73-99zm17 164c33 0 40-30 41-66 1-37-9-64-41-64s-38 30-39 65c0 43 13 65 39 65" id="aI"/><g id="A"><use transform="matrix(0.04938271604938272,0,0,0.04938271604938272,0,0)" xlink:href="#am"/><use transform="matrix(0.04938271604938272,0,0,0.04938271604938272,9.876543209876544,0)" xlink:href="#ai"/><use transform="matrix(0.04938271604938272,0,0,0.04938271604938272,20.69135802469136,0)" xlink:href="#ai"/><use transform="matrix(0.04938271604938272,0,0,0.04938271604938272,31.506172839506174,0)" xlink:href="#af"/><use transform="matrix(0.04938271604938272,0,0,0.04938271604938272,42.320987654320994,0)" xlink:href="#ak"/><use transform="matrix(0.04938271604938272,0,0,0.04938271604938272,53.135802469135804,0)" xlink:href="#ai"/><use transform="matrix(0.04938271604938272,0,0,0.04938271604938272,63.95061728395062,0)" xlink:href="#ao"/><use transform="matrix(0.04938271604938272,0,0,0.04938271604938272,73.82716049382717,0)" xlink:href="#Y"/><use transform="matrix(0.04938271604938272,0,0,0.04938271604938272,83.70370370370371,0)" xlink:href="#aI"/></g><path d="M128 0H69L1-190h53L99-40l48-150h52" id="aJ"/><g id="B"><use transform="matrix(0.04938271604938272,0,0,0.04938271604938272,0,0)" xlink:href="#ao"/><use transform="matrix(0.04938271604938272,0,0,0.04938271604938272,9.876543209876544,0)" xlink:href="#af"/><use transform="matrix(0.04938271604938272,0,0,0.04938271604938272,20.69135802469136,0)" xlink:href="#ai"/><use transform="matrix(0.04938271604938272,0,0,0.04938271604938272,31.506172839506174,0)" xlink:href="#aJ"/><use transform="matrix(0.04938271604938272,0,0,0.04938271604938272,41.38271604938272,0)" xlink:href="#Y"/><use transform="matrix(0.04938271604938272,0,0,0.04938271604938272,51.25925925925927,0)" xlink:href="#ai"/><use transform="matrix(0.04938271604938272,0,0,0.04938271604938272,62.074074074074076,0)" xlink:href="#Y"/><use transform="matrix(0.04938271604938272,0,0,0.04938271604938272,71.95061728395063,0)" xlink:href="#aa"/></g><g id="C"><use transform="matrix(0.05,0,0,0.05,0,0)" xlink:href="#ae"/><use transform="matrix(0.05,0,0,0.05,16.599999999999998,0)" xlink:href="#af"/><use transform="matrix(0.05,0,0,0.05,27.549999999999997,0)" xlink:href="#ag"/><use transform="matrix(0.05,0,0,0.05,34.55,0)" xlink:href="#Z"/><use transform="matrix(0.05,0,0,0.05,44.55,0)" xlink:href="#ah"/><use transform="matrix(0.05,0,0,0.05,49.55,0)" xlink:href="#ai"/><use transform="matrix(0.05,0,0,0.05,60.5,0)" xlink:href="#aj"/></g><path d="M67-125c0 54 23 88 75 88 28 0 53-7 68-21v-34h-60v-39h108v91C232-14 192 4 140 4 58 4 20-42 15-125 8-236 126-280 215-234c19 10 29 26 37 47l-47 15c-11-23-29-39-63-39-53 1-75 33-75 86" id="aK"/><g id="D"><use transform="matrix(0.05,0,0,0.05,0,0)" xlink:href="#aK"/><use transform="matrix(0.05,0,0,0.05,14,0)" xlink:href="#ag"/><use transform="matrix(0.05,0,0,0.05,21,0)" xlink:href="#af"/><use transform="matrix(0.05,0,0,0.05,31.950000000000003,0)" xlink:href="#ak"/><use transform="matrix(0.05,0,0,0.05,42.900000000000006,0)" xlink:href="#al"/></g><g id="E"><use transform="matrix(0.05,0,0,0.05,0,0)" xlink:href="#aI"/><use transform="matrix(0.05,0,0,0.05,10.950000000000001,0)" xlink:href="#ah"/><use transform="matrix(0.05,0,0,0.05,15.950000000000001,0)" xlink:href="#aa"/><use transform="matrix(0.05,0,0,0.05,25.950000000000003,0)" xlink:href="#aa"/><use transform="matrix(0.05,0,0,0.05,35.95,0)" xlink:href="#af"/><use transform="matrix(0.05,0,0,0.05,46.900000000000006,0)" xlink:href="#an"/><use transform="matrix(0.05,0,0,0.05,51.900000000000006,0)" xlink:href="#aJ"/><use transform="matrix(0.05,0,0,0.05,61.900000000000006,0)" xlink:href="#Y"/><use transform="matrix(0.05,0,0,0.05,71.9,0)" xlink:href="#aa"/></g><path fill="#fff" d="M136-208V0H84v-208H4v-40h212v40h-80" id="aL"/><path fill="#fff" d="M185-48c-13 30-37 53-82 52C43 2 14-33 14-96s30-98 90-98c62 0 83 45 84 108H66c0 31 8 55 39 56 18 0 30-7 34-22zm-45-69c5-46-57-63-70-21-2 6-4 13-4 21h74" id="aM"/><path fill="#fff" d="M135-150c-39-12-60 13-60 57V0H25l-1-190h47c2 13-1 29 3 40 6-28 27-53 61-41v41" id="aN"/><path fill="#fff" d="M220-157c-53 9-28 100-34 157h-49v-107c1-27-5-49-29-50C55-147 81-57 75 0H25l-1-190h47c2 12-1 28 3 38 10-53 101-56 108 0 13-22 24-43 59-42 82 1 51 116 57 194h-49v-107c-1-25-5-48-29-50" id="aO"/><g id="F"><use transform="matrix(0.05,0,0,0.05,0,0)" xlink:href="#aL"/><use transform="matrix(0.05,0,0,0.05,9.600000000000001,0)" xlink:href="#aM"/><use transform="matrix(0.05,0,0,0.05,19.6,0)" xlink:href="#aN"/><use transform="matrix(0.05,0,0,0.05,26.6,0)" xlink:href="#aO"/></g><path fill="#fff" d="M23 0v-37h61v-169l-59 37v-38l62-41h46v211h57V0H23" id="aP"/><use transform="matrix(0.05,0,0,0.05,0,0)" xlink:href="#aP" id="G"/><path fill="#fff" d="M275 0h-61l-44-196L126 0H64L0-248h53L97-49l45-199h58l43 199 44-199h52" id="aQ"/><path fill="#fff" d="M110-194c64 0 96 36 96 99 0 64-35 99-97 99-61 0-95-36-95-99 0-62 34-99 96-99zm-1 164c35 0 45-28 45-65 0-40-10-65-43-65-34 0-45 26-45 65 0 36 10 65 43 65" id="aR"/><path fill="#fff" d="M147 0L96-86 75-71V0H25v-261h50v150l67-79h53l-66 74L201 0h-54" id="aS"/><path fill="#fff" d="M25-224v-37h50v37H25zM25 0v-190h50V0H25" id="aT"/><path fill="#fff" d="M135-194c87-1 58 113 63 194h-50c-7-57 23-157-34-157-59 0-34 97-39 157H25l-1-190h47c2 12-1 28 3 38 12-26 28-41 61-42" id="aU"/><path fill="#fff" d="M195-6C206 82 75 100 31 46c-4-6-6-13-8-21l49-6c3 16 16 24 34 25 40 0 42-37 40-79-11 22-30 35-61 35-53 0-70-43-70-97 0-56 18-96 73-97 30 0 46 14 59 34l2-30h47zm-90-29c32 0 41-27 41-63 0-35-9-62-40-62-32 0-39 29-40 63 0 36 9 62 39 62" id="aV"/><g id="H"><use transform="matrix(0.05,0,0,0.05,0,0)" xlink:href="#aQ"/><use transform="matrix(0.05,0,0,0.05,16.599999999999998,0)" xlink:href="#aR"/><use transform="matrix(0.05,0,0,0.05,27.549999999999997,0)" xlink:href="#aN"/><use transform="matrix(0.05,0,0,0.05,34.55,0)" xlink:href="#aS"/><use transform="matrix(0.05,0,0,0.05,44.55,0)" xlink:href="#aT"/><use transform="matrix(0.05,0,0,0.05,49.55,0)" xlink:href="#aU"/><use transform="matrix(0.05,0,0,0.05,60.5,0)" xlink:href="#aV"/></g><path fill="#fff" d="M67-125c0 54 23 88 75 88 28 0 53-7 68-21v-34h-60v-39h108v91C232-14 192 4 140 4 58 4 20-42 15-125 8-236 126-280 215-234c19 10 29 26 37 47l-47 15c-11-23-29-39-63-39-53 1-75 33-75 86" id="aW"/><path fill="#fff" d="M85 4C-2 5 27-109 22-190h50c7 57-23 150 33 157 60-5 35-97 40-157h50l1 190h-47c-2-12 1-28-3-38-12 25-28 42-61 42" id="aX"/><path fill="#fff" d="M135-194c53 0 70 44 70 98 0 56-19 98-73 100-31 1-45-17-59-34 3 33 2 69 2 105H25l-1-265h48c2 10 0 23 3 31 11-24 29-35 60-35zM114-30c33 0 39-31 40-66 0-38-9-64-40-64-56 0-55 130 0 130" id="aY"/><g id="I"><use transform="matrix(0.05,0,0,0.05,0,0)" xlink:href="#aW"/><use transform="matrix(0.05,0,0,0.05,14,0)" xlink:href="#aN"/><use transform="matrix(0.05,0,0,0.05,21,0)" xlink:href="#aR"/><use transform="matrix(0.05,0,0,0.05,31.950000000000003,0)" xlink:href="#aX"/><use transform="matrix(0.05,0,0,0.05,42.900000000000006,0)" xlink:href="#aY"/></g><path fill="#fff" d="M182-182c0 78-84 86-111 141h115V0H12c-6-101 99-100 120-180 1-22-12-31-33-32-23 0-32 14-35 34l-49-3c5-45 32-70 84-70 51 0 83 22 83 69" id="aZ"/><use transform="matrix(0.05,0,0,0.05,0,0)" xlink:href="#aZ" id="J"/><path d="M599-131c141 0 220-65 285-146l113 88C906-50 770 20 589 20 281 21 93-214 93-545c0-223 93-397 233-485 74-48 154-72 240-72 300 2 449 218 445 537v77H278c0 197 129 357 321 357zm227-509c-3-180-88-310-260-310-170 0-264 140-282 310h542" id="ba"/><path d="M258 11c-71 0-114-43-114-108 0-67 42-112 114-112s116 45 116 112c-1 65-45 108-116 108" id="bb"/><path d="M521 20C240 20 96-239 96-550c0-303 147-552 427-552 132 0 235 47 309 140l9-120h169V-26c4 277-183 454-459 452-165-1-334-81-400-187l96-111c79 98 176 147 291 147 180 1 288-109 286-290v-93C750-23 649 20 521 20zm48-965c-209 0-287 178-287 416 0 217 86 392 285 392 117 0 202-53 257-159v-494c-57-103-142-155-255-155" id="bc"/><g id="K"><use transform="matrix(0.008680533854166665,0,0,0.008680533854166665,0,0)" xlink:href="#ba"/><use transform="matrix(0.008680533854166665,0,0,0.008680533854166665,9.418379231770832,0)" xlink:href="#bb"/><use transform="matrix(0.008680533854166665,0,0,0.008680533854166665,14.097186979166665,0)" xlink:href="#bc"/><use transform="matrix(0.008680533854166665,0,0,0.008680533854166665,24.071120377604164,0)" xlink:href="#bb"/></g><path d="M1288 0h-193L362-1122V0H169v-1456h193l735 1127v-1127h191V0" id="bd"/><path d="M584 20C278 26 81-227 91-551c10-320 175-545 491-551 308-5 503 247 494 573-9 322-175 543-492 549zm-2-970c-208 0-305 185-305 421 0 216 106 398 307 398 211 0 307-186 307-420 0-214-109-399-309-399" id="be"/><path d="M589-945c-131 0-219 81-264 174V0H140v-1082h175l6 136c83-104 191-156 324-156 229 0 346 129 346 387V0H806v-716c-2-153-65-229-217-229" id="bf"/><g id="L"><use transform="matrix(0.008680533854166665,0,0,0.008680533854166665,0,0)" xlink:href="#bd"/><use transform="matrix(0.008680533854166665,0,0,0.008680533854166665,12.67357942708333,0)" xlink:href="#ba"/><use transform="matrix(0.008680533854166665,0,0,0.008680533854166665,22.09195865885416,0)" xlink:href="#be"/><use transform="matrix(0.008680533854166665,0,0,0.008680533854166665,32.23082220052083,0)" xlink:href="#bf"/></g><path d="M704-1390c-164-38-297 28-288 194v114h231v143H416V0H231v-939H60v-143h171v-111c-12-274 208-416 483-347" id="bg"/><path d="M561-1102c238-4 403 126 403 351v498c0 99 13 178 38 237V0H808c-11-21-19-59-26-114C696-25 593 20 474 20c-199 0-368-130-365-320 4-251 214-359 490-356h180v-85c-1-135-86-212-229-212-115 0-232 67-233 171H131c20-205 206-316 430-320zM294-326c0 117 90 185 207 185 122 0 239-75 278-162v-222H634c-227 0-340 66-340 199" id="bh"/><path d="M456 20C285 20 205-92 206-268v-671H9v-143h197v-262h185v262h202v143H391v671c-9 125 92 149 207 118V0c-49 13-96 20-142 20" id="bi"/><path d="M491 20c-241-1-355-148-355-398v-704h185v699c0 164 67 246 200 246 141 0 235-53 282-158v-787h185V0H812l-4-107C736-22 630 20 491 20" id="bj"/><path d="M663-916c-163-27-288 18-338 148V0H140v-1082h180l3 125c61-97 147-145 258-145 36 0 63 5 82 14v172" id="bk"/><g id="M"><use transform="matrix(0.008680533854166665,0,0,0.008680533854166665,0,0)" xlink:href="#bg"/><use transform="matrix(0.008680533854166665,0,0,0.008680533854166665,5.963526757812499,0)" xlink:href="#ba"/><use transform="matrix(0.008680533854166665,0,0,0.008680533854166665,15.38190598958333,0)" xlink:href="#bh"/><use transform="matrix(0.008680533854166665,0,0,0.008680533854166665,25.052020703124995,0)" xlink:href="#bi"/><use transform="matrix(0.008680533854166665,0,0,0.008680533854166665,30.859297851562495,0)" xlink:href="#bj"/><use transform="matrix(0.008680533854166665,0,0,0.008680533854166665,40.65962057291666,0)" xlink:href="#bk"/><use transform="matrix(0.008680533854166665,0,0,0.008680533854166665,46.51030039062499,0)" xlink:href="#ba"/></g><path d="M314-151h633V0H88v-136l597-793H97v-153h820v131" id="bl"/><g id="N"><use transform="matrix(0.008680533854166665,0,0,0.008680533854166665,0,0)" xlink:href="#bg"/><use transform="matrix(0.008680533854166665,0,0,0.008680533854166665,6.171859570312499,0)" xlink:href="#bk"/><use transform="matrix(0.008680533854166665,0,0,0.008680533854166665,12.022539388020832,0)" xlink:href="#ba"/><use transform="matrix(0.008680533854166665,0,0,0.008680533854166665,21.440918619791663,0)" xlink:href="#ba"/><use transform="matrix(0.008680533854166665,0,0,0.008680533854166665,30.859297851562495,0)" xlink:href="#bl"/><use transform="matrix(0.008680533854166665,0,0,0.008680533854166665,39.531151171874995,0)" xlink:href="#ba"/></g><path d="M631-137c179 0 314-70 314-231 0-71-25-127-75-166s-141-77-272-115c-165-47-285-106-360-175s-112-154-112-255c0-245 231-397 495-397 206 0 369 89 449 218 43 68 65 142 65 223H942c0-184-129-283-321-283-172 0-299 76-301 236 0 59 26 109 76 150s135 78 256 113c205 59 345 116 436 256 35 53 50 119 50 193-2 256-231 398-507 390C333 12 90-129 80-422h193c0 187 160 285 358 285" id="bm"/><path d="M520 20C244 20 95-247 95-550c0-298 151-550 427-552 127 0 227 43 301 130v-564h185V0H838l-9-116C755-25 652 20 520 20zm48-965c-210 0-288 177-288 416 0 218 87 392 286 392 117 0 203-53 257-158v-497c-55-102-140-153-255-153" id="bn"/><path d="M341 0H156v-1082h185V0zm-91-1264c-68 0-108-42-109-105 0-62 41-107 109-107s110 44 110 107-42 105-110 105" id="bo"/><path d="M1240-945c-141 0-250 95-250 227V0H804v-709c0-157-77-236-231-236-121 0-204 52-249 155V0H139v-1082h175l5 120c79-93 186-140 321-140 151 0 254 58 309 174 69-98 181-174 345-174 237 0 362 126 362 377V0h-185v-714c-2-159-67-231-231-231" id="bp"/><g id="O"><use transform="matrix(0.008680533854166665,0,0,0.008680533854166665,0,0)" xlink:href="#bm"/><use transform="matrix(0.008680533854166665,0,0,0.008680533854166665,10.546848632812498,0)" xlink:href="#be"/><use transform="matrix(0.008680533854166665,0,0,0.008680533854166665,20.685712174479164,0)" xlink:href="#bn"/><use transform="matrix(0.008680533854166665,0,0,0.008680533854166665,30.71172877604166,0)" xlink:href="#bo"/><use transform="matrix(0.008680533854166665,0,0,0.008680533854166665,35.02595410156249,0)" xlink:href="#bj"/><use transform="matrix(0.008680533854166665,0,0,0.008680533854166665,44.826276822916654,0)" xlink:href="#bp"/></g><g id="P"><use transform="matrix(0.008680533854166665,0,0,0.008680533854166665,0,0)" xlink:href="#ba"/><use transform="matrix(0.008680533854166665,0,0,0.008680533854166665,9.418379231770832,0)" xlink:href="#bb"/><use transform="matrix(0.008680533854166665,0,0,0.008680533854166665,14.097186979166665,0)" xlink:href="#bc"/><use transform="matrix(0.008680533854166665,0,0,0.008680533854166665,24.071120377604164,0)" xlink:href="#bb"/></g><path d="M417-1456L893-268l476-1188h249V0h-192c-4-403 4-794 18-1179L966 0H819L342-1176c15 384 23 773 19 1176H169v-1456h248" id="bq"/><path d="M538-131c121 0 232-49 232-156 0-50-20-88-56-117-73-60-334-92-420-143-92-55-162-110-162-238 0-190 192-317 400-317 223 0 414 129 413 338H759c0-108-110-186-227-186-119 0-215 53-215 159 0 45 18 78 53 101 76 52 331 90 416 139 98 57 169 115 169 251C955-92 760 20 538 20c-176 0-314-68-386-174-38-55-57-115-57-179h185c6 129 116 202 258 202" id="br"/><g id="Q"><use transform="matrix(0.008463541666666668,0,0,0.008463541666666668,0,0)" xlink:href="#bq"/><use transform="matrix(0.008463541666666668,0,0,0.008463541666666668,15.132812500000002,0)" xlink:href="#bh"/><use transform="matrix(0.008463541666666668,0,0,0.008463541666666668,24.56119791666667,0)" xlink:href="#bc"/><use transform="matrix(0.008463541666666668,0,0,0.008463541666666668,34.28580729166667,0)" xlink:href="#bf"/><use transform="matrix(0.008463541666666668,0,0,0.008463541666666668,43.84960937500001,0)" xlink:href="#ba"/><use transform="matrix(0.008463541666666668,0,0,0.008463541666666668,53.03255208333334,0)" xlink:href="#br"/><use transform="matrix(0.008463541666666668,0,0,0.008463541666666668,61.97005208333334,0)" xlink:href="#bo"/><use transform="matrix(0.008463541666666668,0,0,0.008463541666666668,66.17643229166667,0)" xlink:href="#bj"/><use transform="matrix(0.008463541666666668,0,0,0.008463541666666668,75.73177083333334,0)" xlink:href="#bp"/></g><g id="R"><use transform="matrix(0.008680533854166665,0,0,0.008680533854166665,0,0)" xlink:href="#bg"/><use transform="matrix(0.008680533854166665,0,0,0.008680533854166665,5.963526757812499,0)" xlink:href="#ba"/><use transform="matrix(0.008680533854166665,0,0,0.008680533854166665,15.38190598958333,0)" xlink:href="#bh"/><use transform="matrix(0.008680533854166665,0,0,0.008680533854166665,25.052020703124995,0)" xlink:href="#bi"/><use transform="matrix(0.008680533854166665,0,0,0.008680533854166665,30.859297851562495,0)" xlink:href="#bj"/><use transform="matrix(0.008680533854166665,0,0,0.008680533854166665,40.65962057291666,0)" xlink:href="#bk"/><use transform="matrix(0.008680533854166665,0,0,0.008680533854166665,46.51030039062499,0)" xlink:href="#ba"/></g></defs></g></svg>