<?xml version="1.0" standalone="no"?>
<!DOCTYPE svg PUBLIC "-//W3C//DTD SVG 20010904//EN"
 "http://www.w3.org/TR/2001/REC-SVG-20010904/DTD/svg10.dtd">
<svg version="1.0" xmlns="http://www.w3.org/2000/svg"
 width="822.000000pt" height="482.000000pt" viewBox="0 0 822.000000 482.000000"
 preserveAspectRatio="xMidYMid meet">

<g transform="translate(0.000000,482.000000) scale(0.100000,-0.100000)"
fill="#000000" stroke="none">
<path d="M2620 4060 c0 -41 20 -58 21 -17 l0 22 16 -22 c23 -34 33 -28 33 17
0 22 -4 40 -10 40 -5 0 -10 -10 -10 -22 l0 -22 -16 22 c-23 33 -34 27 -34 -18z"/>
<path d="M2775 4074 c-13 -13 -19 -14 -25 -5 -13 22 -45 8 -45 -19 0 -18 6
-26 23 -28 12 -2 22 1 22 7 0 6 -7 8 -15 5 -8 -4 -15 -1 -15 5 0 17 38 13 48
-5 12 -22 46 -14 50 12 5 32 -22 49 -43 28z m30 -22 c0 -18 -20 -15 -23 4 -3
10 1 15 10 12 7 -3 13 -10 13 -16z"/>
<path d="M2437 4066 c-14 -36 30 -66 49 -34 5 8 2 9 -9 5 -9 -3 -19 -2 -22 3
-4 6 3 10 15 10 27 0 21 24 -7 28 -11 2 -23 -4 -26 -12z"/>
<path d="M2500 4051 c0 -20 6 -31 18 -34 14 -4 14 -5 -3 -6 -16 -1 -17 -3 -6
-10 25 -16 41 -1 41 40 0 35 -3 39 -25 39 -21 0 -25 -5 -25 -29z m35 -11 c-5
-8 -11 -8 -17 -2 -6 6 -7 16 -3 22 5 8 11 8 17 2 6 -6 7 -16 3 -22z"/>
<path d="M2830 4050 c0 -16 5 -30 10 -30 6 0 10 11 10 25 0 34 18 32 23 -2 4
-26 4 -26 6 5 1 28 -2 32 -24 32 -21 0 -25 -5 -25 -30z"/>
<path d="M2442 3944 c-10 -18 -3 -74 9 -74 5 0 9 10 10 23 0 12 2 32 3 45 3
25 -9 29 -22 6z"/>
<path d="M5463 3953 c-20 -7 -15 -30 9 -47 12 -9 19 -19 15 -22 -4 -4 -14 -1
-23 7 -15 12 -17 12 -12 -1 6 -19 37 -25 52 -10 8 9 5 16 -11 30 -29 23 -29
33 -1 24 20 -6 21 -5 9 10 -14 17 -18 18 -38 9z"/>
<path d="M5620 3945 c0 -8 -5 -14 -11 -12 -16 3 -33 -28 -26 -47 4 -9 17 -16
32 -16 23 0 25 4 25 45 0 25 -4 45 -10 45 -5 0 -10 -7 -10 -15z m0 -45 c0 -11
-4 -20 -10 -20 -5 0 -10 9 -10 20 0 11 5 20 10 20 6 0 10 -9 10 -20z"/>
<path d="M7287 3954 c-11 -11 -8 -84 3 -84 6 0 10 8 10 18 1 15 2 15 12 -2 11
-19 11 -19 24 -1 13 17 14 17 14 2 0 -9 5 -17 10 -17 12 0 13 77 1 84 -5 3
-14 -8 -22 -25 l-12 -31 -17 31 c-9 18 -19 29 -23 25z"/>
<path d="M2598 3938 c-7 -21 4 -68 17 -68 8 0 11 10 9 28 l-4 27 11 -27 c7
-20 18 -28 35 -28 20 0 24 5 24 30 0 17 -4 30 -10 30 -5 0 -10 -11 -10 -25 0
-14 -4 -25 -10 -25 -5 0 -10 11 -10 25 0 16 -6 25 -15 25 -8 0 -15 5 -15 10 0
14 -17 13 -22 -2z"/>
<path d="M5531 3930 c-7 -4 -11 -18 -9 -31 5 -35 42 -33 46 2 3 28 -16 43 -37
29z m29 -24 c0 -8 -4 -17 -9 -21 -12 -7 -24 12 -16 25 9 15 25 12 25 -4z"/>
<path d="M7394 3932 c-6 -4 -11 -19 -12 -34 -1 -24 2 -28 23 -28 21 0 25 5 25
29 0 29 -18 45 -36 33z m26 -36 c0 -3 -4 -8 -10 -11 -5 -3 -10 -1 -10 4 0 6 5
11 10 11 6 0 10 -2 10 -4z"/>
<path d="M7451 3927 c-19 -19 -13 -48 11 -55 20 -5 21 -6 3 -12 -12 -4 -15 -9
-8 -13 17 -11 43 21 43 53 0 30 -30 46 -49 27z m29 -27 c0 -11 -4 -20 -10 -20
-5 0 -10 9 -10 20 0 11 5 20 10 20 6 0 10 -9 10 -20z"/>
<path d="M2477 3916 c-13 -32 3 -43 59 -44 54 0 55 0 52 26 -4 34 -48 46 -48
14 0 -21 -36 -37 -46 -21 -3 5 4 9 16 9 27 0 21 24 -7 28 -11 2 -23 -4 -26
-12z m93 -26 c0 -5 -5 -10 -11 -10 -5 0 -7 5 -4 10 3 6 8 10 11 10 2 0 4 -4 4
-10z"/>
<path d="M2700 3900 c0 -16 4 -30 9 -30 5 0 11 14 13 30 3 20 0 30 -9 30 -8 0
-13 -12 -13 -30z"/>
<path d="M2742 3903 c2 -20 9 -29 26 -31 12 -2 22 1 22 7 0 6 -7 8 -15 5 -8
-4 -15 -1 -15 5 0 6 7 11 16 11 24 0 11 25 -15 28 -19 3 -22 0 -19 -25z"/>
<path d="M5264 3915 c-9 -23 3 -45 26 -45 11 0 20 4 20 10 0 5 -7 7 -15 4 -8
-4 -15 -1 -15 5 0 17 40 13 46 -4 4 -8 14 -15 23 -16 13 0 12 -2 -4 -10 -18
-8 -18 -8 5 -6 21 2 25 8 28 40 3 34 1 37 -22 37 -13 0 -27 -6 -30 -12 -5 -10
-7 -10 -12 0 -8 17 -43 15 -50 -3z m96 -16 c0 -11 -4 -17 -10 -14 -5 3 -10 13
-10 21 0 8 5 14 10 14 6 0 10 -9 10 -21z"/>
<path d="M5652 3900 c0 -19 2 -27 5 -17 2 9 2 25 0 35 -3 9 -5 1 -5 -18z"/>
<path d="M5670 3916 c0 -30 13 -46 36 -46 20 0 24 5 24 30 0 17 -4 30 -10 30
-5 0 -10 -11 -10 -25 0 -14 -4 -25 -10 -25 -5 0 -10 11 -10 25 0 14 -4 25 -10
25 -5 0 -10 -6 -10 -14z"/>
<path d="M5740 3900 c0 -16 5 -30 10 -30 6 0 10 11 10 25 0 34 20 32 21 -2 1
-26 1 -27 7 -5 4 13 12 23 17 23 6 0 13 -10 17 -23 5 -20 6 -18 7 10 1 31 0
32 -44 32 -43 0 -45 -1 -45 -30z"/>
<path d="M7096 3915 c-13 -35 31 -64 50 -33 5 8 2 9 -9 5 -9 -3 -19 -2 -22 3
-4 6 3 10 15 10 11 0 23 -7 26 -15 4 -8 14 -15 23 -16 13 0 12 -2 -4 -10 -18
-8 -18 -8 5 -6 21 2 25 8 28 40 3 34 1 37 -22 37 -14 0 -26 -5 -26 -12 0 -9
-3 -9 -12 0 -17 17 -45 15 -52 -3z m94 -16 c0 -11 -4 -17 -10 -14 -5 3 -10 13
-10 21 0 8 5 14 10 14 6 0 10 -9 10 -21z"/>
<path d="M7511 3898 c1 -28 2 -30 7 -10 4 13 12 23 17 23 6 0 13 -10 17 -23 5
-20 6 -18 7 10 1 28 -2 32 -24 32 -22 0 -25 -4 -24 -32z"/>
<path d="M7574 3915 c-9 -23 3 -45 26 -45 11 0 20 4 20 10 0 5 -7 7 -15 4 -8
-4 -15 -2 -15 4 0 16 46 20 66 4 18 -13 18 -14 -5 -7 -16 5 -21 4 -17 -4 10
-16 46 -13 46 4 0 7 -8 19 -17 25 -17 11 -17 11 0 6 9 -3 17 -1 17 4 0 14 -34
12 -48 -2 -9 -9 -12 -9 -12 0 0 17 -40 15 -46 -3z"/>
<path d="M7690 3900 c0 -16 5 -30 10 -30 6 0 10 14 10 30 0 17 -4 30 -10 30
-5 0 -10 -13 -10 -30z"/>
<path d="M7722 3903 c2 -20 9 -29 26 -31 19 -3 22 1 21 30 -1 21 -3 26 -6 13
-8 -34 -23 -41 -23 -12 0 15 -5 27 -11 27 -6 0 -9 -12 -7 -27z"/>
<path d="M7791 3898 c2 -30 2 -31 6 -5 5 34 23 36 23 2 0 -14 5 -25 10 -25 6
0 10 11 10 25 0 14 5 25 10 25 6 0 10 -11 10 -25 0 -14 5 -25 11 -25 6 0 9 12
7 28 -3 24 -7 27 -45 30 -43 3 -43 3 -42 -30z"/>
<path d="M2442 3804 c-10 -18 -3 -74 9 -74 5 0 9 10 10 23 0 12 2 32 3 45 3
25 -9 29 -22 6z"/>
<path d="M5272 3803 c-5 -10 -5 -31 -1 -48 l7 -30 1 28 c0 15 5 27 9 27 4 0 8
9 8 20 0 25 -12 26 -24 3z"/>
<path d="M5662 3804 c-10 -18 -3 -74 9 -74 5 0 9 10 10 23 0 12 2 32 3 45 3
25 -9 29 -22 6z"/>
<path d="M7102 3804 c-10 -18 -3 -74 9 -74 5 0 9 10 10 23 0 12 2 32 3 45 3
25 -9 29 -22 6z"/>
<path d="M7492 3804 c-10 -18 -3 -74 9 -74 5 0 9 10 10 23 0 12 2 32 3 45 3
25 -9 29 -22 6z"/>
<path d="M5428 3798 c-2 -6 -2 -23 0 -38 4 -25 8 -28 48 -28 42 -1 44 0 44 28
0 17 -4 30 -10 30 -5 0 -10 -11 -10 -25 0 -14 -4 -25 -10 -25 -5 0 -10 11 -10
25 0 14 -4 25 -10 25 -5 0 -10 -12 -10 -26 0 -15 -4 -23 -11 -18 -6 3 -8 17
-5 29 6 24 -9 45 -16 23z"/>
<path d="M7258 3798 c-7 -21 4 -68 17 -68 8 0 11 10 9 28 l-4 27 11 -27 c7
-20 18 -28 35 -28 20 0 24 5 24 30 0 17 -4 30 -10 30 -5 0 -10 -11 -10 -25 0
-14 -4 -25 -10 -25 -5 0 -10 11 -10 25 0 16 -6 25 -15 25 -8 0 -15 5 -15 10 0
14 -17 13 -22 -2z"/>
<path d="M5543 3793 c-7 -3 -12 -19 -12 -36 1 -22 3 -25 6 -12 3 11 10 26 16
33 12 15 7 21 -10 15z"/>
<path d="M7373 3793 c-7 -3 -12 -19 -12 -36 1 -22 3 -25 6 -12 3 11 10 26 16
33 12 15 7 21 -10 15z"/>
<path d="M7543 3793 c-7 -3 -12 -19 -12 -36 1 -22 3 -25 6 -12 3 11 10 26 16
33 12 15 7 21 -10 15z"/>
<path d="M2481 3757 c2 -31 2 -31 6 -4 5 33 20 36 25 5 3 -23 48 -40 48 -19 0
6 -7 8 -15 5 -8 -4 -15 -1 -15 5 0 16 40 13 46 -3 4 -10 26 -14 85 -14 43 0
79 4 79 9 0 4 -7 6 -15 3 -8 -4 -15 -1 -15 5 0 6 9 11 20 11 13 0 18 5 13 16
-9 23 -47 13 -51 -13 -2 -13 -10 -23 -18 -23 -16 0 -19 16 -4 25 6 3 10 10 10
15 0 13 -94 10 -102 -4 -6 -8 -10 -8 -15 1 -5 6 -25 11 -45 11 -36 0 -38 -2
-37 -31z m168 5 c-6 -10 -20 -18 -30 -17 -27 2 -36 15 -11 15 12 0 22 5 22 10
0 6 7 10 15 10 12 0 13 -4 4 -18z"/>
<path d="M5304 3775 c-9 -23 3 -45 26 -45 11 0 20 4 20 10 0 5 -7 7 -15 4 -8
-4 -15 -1 -15 5 0 6 9 11 20 11 13 0 18 5 14 15 -4 8 -15 15 -25 15 -11 0 -22
-7 -25 -15z"/>
<path d="M5367 3783 c-11 -24 0 -48 24 -51 23 -3 25 0 21 27 -3 22 -10 31 -23
31 -10 0 -20 -3 -22 -7z m33 -27 c0 -3 -4 -8 -10 -11 -5 -3 -10 -1 -10 4 0 6
5 11 10 11 6 0 10 -2 10 -4z"/>
<path d="M5567 3776 c-14 -36 30 -66 49 -34 5 8 2 9 -9 5 -9 -3 -19 -2 -22 3
-4 6 3 10 15 10 27 0 21 24 -7 28 -11 2 -23 -4 -26 -12z"/>
<path d="M5701 3757 c2 -31 2 -31 6 -4 5 33 20 36 25 5 3 -23 48 -40 48 -19 0
6 -7 8 -15 5 -8 -4 -15 -1 -15 5 0 16 40 13 46 -3 4 -10 26 -14 85 -14 43 0
79 4 79 9 0 4 -7 6 -15 3 -8 -4 -15 -1 -15 5 0 6 9 11 20 11 13 0 18 5 13 16
-9 23 -47 13 -51 -13 -2 -13 -10 -23 -18 -23 -16 0 -19 16 -4 25 6 3 10 10 10
15 0 13 -94 10 -102 -4 -6 -8 -10 -8 -15 1 -5 6 -25 11 -45 11 -36 0 -38 -2
-37 -31z m168 5 c-6 -10 -20 -18 -30 -17 -27 2 -36 15 -11 15 12 0 22 5 22 10
0 6 7 10 15 10 12 0 13 -4 4 -18z"/>
<path d="M7134 3775 c-9 -23 3 -45 26 -45 11 0 20 4 20 10 0 5 -7 7 -15 4 -8
-4 -15 -1 -15 5 0 6 9 11 20 11 13 0 18 5 14 15 -4 8 -15 15 -25 15 -11 0 -22
-7 -25 -15z"/>
<path d="M7198 3766 c-6 -31 -2 -36 29 -36 21 0 24 4 21 28 -4 38 -43 44 -50
8z m32 -16 c0 -5 -5 -10 -11 -10 -5 0 -7 5 -4 10 3 6 8 10 11 10 2 0 4 -4 4
-10z"/>
<path d="M7402 3763 c2 -20 9 -29 26 -31 12 -2 22 1 22 7 0 6 -7 8 -15 5 -8
-4 -15 -1 -15 5 0 6 7 11 16 11 24 0 11 25 -15 28 -19 3 -22 0 -19 -25z"/>
<path d="M7566 3775 c-13 -35 31 -64 50 -33 5 8 2 9 -9 5 -9 -3 -19 -2 -22 3
-4 6 3 10 15 10 11 0 23 -6 26 -14 4 -10 26 -14 85 -14 43 0 79 4 79 9 0 4 -7
6 -15 3 -8 -4 -15 -1 -15 5 0 6 9 11 20 11 12 0 17 5 14 14 -4 10 -22 14 -57
14 -29 0 -46 -2 -40 -5 20 -7 -3 -40 -26 -38 -29 2 -39 15 -12 15 14 0 21 5
19 13 -6 16 -48 22 -48 6 0 -10 -3 -10 -12 -1 -17 17 -45 15 -52 -3z m174 -15
c0 -11 -7 -20 -15 -20 -13 0 -14 4 -5 20 6 11 13 20 15 20 3 0 5 -9 5 -20z"/>
<path d="M5552 3580 c-42 -37 -48 -60 -16 -60 11 0 14 -25 14 -145 l0 -145 45
0 45 0 0 145 c0 120 3 145 14 145 31 0 27 23 -10 61 -22 21 -41 39 -44 38 -3
0 -25 -17 -48 -39z"/>
<path d="M7482 3567 c-45 -46 -50 -57 -27 -57 13 0 15 -23 15 -145 l0 -145 50
0 50 0 0 141 c0 132 1 141 20 146 28 7 26 13 -23 61 l-43 42 -42 -43z"/>
<path d="M2596 3559 c-52 -48 -56 -59 -21 -59 l25 0 0 -145 0 -145 45 0 45 0
0 145 c0 138 1 145 20 145 29 0 25 11 -24 59 l-43 42 -47 -42z"/>
<path d="M150 3030 l0 -100 2940 0 2940 0 0 100 0 100 -2940 0 -2940 0 0 -100z
m770 5 l0 -85 -375 0 -375 0 0 85 0 85 375 0 375 0 0 -85z m720 0 l0 -85 -355
0 -355 0 0 85 0 85 355 0 355 0 0 -85z m750 0 l0 -85 -370 0 -370 0 0 85 0 85
370 0 370 0 0 -85z m620 0 l0 -85 -305 0 -305 0 0 85 0 85 305 0 305 0 0 -85z
m800 0 l0 -85 -390 0 -390 0 0 85 0 85 390 0 390 0 0 -85z m690 0 l0 -85 -340
0 -340 0 0 85 0 85 340 0 340 0 0 -85z m720 0 l0 -85 -355 0 -355 0 0 85 0 85
355 0 355 0 0 -85z m800 0 l0 -85 -395 0 -395 0 0 85 0 85 395 0 395 0 0 -85z"/>
<path d="M200 3070 c0 -5 5 -10 10 -10 6 0 10 -16 10 -35 0 -24 5 -35 15 -35
10 0 15 11 15 35 0 19 5 35 10 35 6 0 10 5 10 10 0 6 -16 10 -35 10 -19 0 -35
-4 -35 -10z"/>
<path d="M280 3059 c-18 -32 -4 -71 23 -67 26 4 36 50 16 74 -16 19 -26 18
-39 -7z m30 -26 c0 -20 -3 -24 -11 -16 -7 7 -9 19 -6 27 10 24 17 19 17 -11z"/>
<path d="M452 3068 c-19 -19 -14 -38 11 -48 l22 -9 -23 0 c-28 -1 -19 -21 8
-21 35 0 38 76 4 87 -5 2 -15 -2 -22 -9z m15 -30 c-3 -8 -6 -5 -6 6 -1 11 2
17 5 13 3 -3 4 -12 1 -19z"/>
<path d="M760 3036 c0 -25 5 -46 10 -46 6 0 10 6 10 13 0 8 3 9 8 1 8 -13 79
-17 86 -5 3 4 2 17 -1 29 -7 28 -56 32 -51 5 1 -10 -2 -18 -7 -18 -6 0 -10 8
-9 18 0 11 -4 16 -13 13 -7 -3 -13 1 -13 9 0 7 -4 17 -10 20 -6 4 -10 -12 -10
-39z"/>
<path d="M541 3022 c8 -23 16 -29 39 -29 23 0 31 6 39 29 8 22 7 28 -5 28 -7
0 -14 -6 -14 -12 0 -9 -4 -8 -10 2 -9 13 -11 13 -20 0 -6 -10 -10 -11 -10 -2
0 6 -7 12 -14 12 -12 0 -13 -6 -5 -28z"/>
<path d="M634 3035 c-9 -23 3 -45 26 -45 12 0 20 7 20 17 0 15 1 15 13 -1 18
-24 51 -17 55 12 4 27 -23 40 -49 23 -12 -7 -19 -7 -19 -1 0 16 -40 12 -46 -5z"/>
<path d="M370 3020 c0 -5 9 -10 20 -10 11 0 20 5 20 10 0 6 -9 10 -20 10 -11
0 -20 -4 -20 -10z"/>
<path d="M975 3070 c-3 -5 1 -10 9 -10 12 0 16 -10 16 -35 0 -19 5 -35 10 -35
6 0 10 16 10 35 0 46 27 49 32 3 2 -25 8 -34 26 -36 14 -2 22 2 22 12 0 13 5
13 47 1 26 -8 51 -11 54 -7 4 4 4 25 0 47 l-6 39 -22 -27 c-20 -26 -63 -38
-63 -18 0 5 -7 17 -16 26 -12 11 -20 13 -29 5 -9 -8 -15 -8 -20 0 -8 13 -62
13 -70 0z m102 -47 c-3 -10 -5 -4 -5 12 0 17 2 24 5 18 2 -7 2 -21 0 -30z"/>
<path d="M1470 3036 c0 -25 5 -46 10 -46 6 0 10 6 10 13 0 8 3 9 8 1 8 -13 79
-17 86 -5 3 4 2 17 -1 29 -7 28 -56 32 -51 5 1 -10 -2 -18 -7 -18 -6 0 -10 8
-9 18 0 11 -4 16 -13 13 -7 -3 -13 1 -13 9 0 7 -4 17 -10 20 -6 4 -10 -12 -10
-39z"/>
<path d="M1251 3022 c8 -23 16 -29 39 -29 23 0 31 6 39 29 8 22 7 28 -5 28 -7
0 -14 -6 -14 -12 0 -9 -4 -8 -10 2 -9 13 -11 13 -20 0 -6 -10 -10 -11 -10 -2
0 6 -7 12 -14 12 -12 0 -13 -6 -5 -28z"/>
<path d="M1344 3035 c-9 -23 3 -45 26 -45 12 0 20 7 20 18 1 16 2 16 15 -1 19
-26 50 -18 50 13 0 28 -32 41 -47 18 -7 -10 -11 -10 -15 0 -7 17 -42 15 -49
-3z"/>
<path d="M1700 3070 c0 -5 5 -10 10 -10 6 0 10 -16 10 -35 0 -44 18 -46 22 -3
4 43 26 48 30 6 5 -56 57 -48 58 8 0 30 -26 50 -44 35 -10 -8 -16 -9 -21 -1
-8 13 -65 13 -65 0z m110 -40 c0 -11 -4 -20 -10 -20 -5 0 -10 9 -10 20 0 11 5
20 10 20 6 0 10 -9 10 -20z"/>
<path d="M1923 3073 c-7 -3 -13 -9 -13 -15 0 -6 7 -8 15 -4 20 7 19 -1 -6 -32
l-21 -27 27 -3 c31 -4 45 5 26 17 -9 6 -10 11 -2 15 28 17 5 60 -26 49z"/>
<path d="M2228 3074 c-12 -11 -10 -84 2 -84 6 0 10 5 10 11 0 8 4 8 13 2 6 -5
29 -10 49 -12 35 -1 37 0 36 29 -1 25 -5 30 -26 30 -19 0 -23 -4 -19 -20 3
-12 0 -20 -7 -20 -21 0 -27 12 -13 28 10 13 9 15 -10 10 -17 -4 -23 -1 -25 14
-2 11 -6 16 -10 12z"/>
<path d="M2005 3028 c11 -35 24 -45 35 -28 7 10 10 11 10 3 0 -22 22 -14 28 9
l5 22 8 -22 c9 -24 38 -29 57 -10 9 9 12 9 12 0 0 -7 11 -12 25 -12 21 0 25 5
25 30 0 25 -4 30 -25 30 -14 0 -25 -5 -25 -11 0 -9 -4 -9 -14 0 -16 13 -68 11
-78 -4 -5 -6 -8 -6 -8 3 0 6 -6 12 -14 12 -8 0 -17 -6 -19 -12 -4 -10 -6 -10
-6 0 -1 6 -6 12 -12 12 -6 0 -8 -9 -4 -22z"/>
<path d="M1840 3020 c0 -5 7 -10 15 -10 8 0 15 5 15 10 0 6 -7 10 -15 10 -8 0
-15 -4 -15 -10z"/>
<path d="M2645 3070 c-3 -5 1 -10 9 -10 12 0 16 -10 16 -35 0 -19 5 -35 10
-35 6 0 10 16 10 35 0 19 5 35 10 35 6 0 10 5 10 10 0 6 -13 10 -29 10 -17 0
-33 -4 -36 -10z"/>
<path d="M2730 3070 c-15 -9 -17 -57 -2 -72 20 -20 42 0 42 36 0 35 -17 50
-40 36z m17 -47 c-3 -10 -5 -4 -5 12 0 17 2 24 5 18 2 -7 2 -21 0 -30z"/>
<path d="M3080 3070 c0 -5 5 -10 10 -10 6 0 10 -16 10 -35 0 -19 5 -35 10 -35
6 0 10 14 10 30 0 18 6 33 15 36 8 4 12 10 9 15 -7 12 -64 11 -64 -1z"/>
<path d="M3165 3060 c-10 -12 -13 -20 -7 -20 7 0 12 -11 12 -25 0 -16 6 -25
15 -25 11 0 15 11 15 39 0 48 -11 57 -35 31z"/>
<path d="M3333 3073 c-20 -7 -16 -51 5 -56 16 -4 16 -5 -1 -6 -10 0 -15 -5
-12 -11 10 -17 34 -11 45 10 19 36 -4 74 -37 63z m14 -35 c-3 -8 -6 -5 -6 6
-1 11 2 17 5 13 3 -3 4 -12 1 -19z"/>
<path d="M3637 3074 c-4 -4 -7 -17 -7 -28 0 -16 -3 -17 -9 -8 -14 23 -46 10
-46 -18 0 -18 6 -26 23 -28 16 -2 22 2 22 15 1 15 2 16 10 3 6 -11 26 -16 64
-18 54 -1 55 -1 54 28 -1 25 -5 30 -26 30 -19 0 -23 -4 -19 -20 3 -14 0 -20
-10 -20 -10 0 -14 6 -10 20 3 11 0 20 -5 20 -6 0 -16 7 -22 16 -6 8 -15 12
-19 8z"/>
<path d="M3415 3028 c11 -35 24 -45 35 -28 7 10 10 11 10 3 0 -23 20 -14 31
13 11 30 3 46 -11 24 -7 -10 -10 -11 -10 -2 0 6 -6 12 -14 12 -8 0 -17 -6 -19
-12 -4 -10 -6 -10 -6 0 -1 6 -6 12 -12 12 -6 0 -8 -9 -4 -22z"/>
<path d="M3507 3036 c-10 -26 4 -47 27 -44 15 2 21 10 21 28 0 29 -38 41 -48
16z"/>
<path d="M3250 3020 c0 -5 7 -10 15 -10 8 0 15 5 15 10 0 6 -7 10 -15 10 -8 0
-15 -4 -15 -10z"/>
<path d="M3850 3070 c0 -5 5 -10 10 -10 6 0 10 -16 10 -35 0 -24 5 -35 15 -35
10 0 15 11 15 35 0 19 5 35 10 35 6 0 10 5 10 10 0 6 -16 10 -35 10 -19 0 -35
-4 -35 -10z"/>
<path d="M3940 3063 c-10 -12 -11 -18 -2 -21 7 -2 12 -15 12 -28 0 -13 5 -24
10 -24 6 0 10 20 10 45 0 48 -6 54 -30 28z"/>
<path d="M4046 3055 c-9 -14 -25 -25 -36 -25 -35 0 -22 -15 22 -27 49 -13 56
-8 50 42 -5 41 -14 44 -36 10z"/>
<path d="M4347 3074 c-4 -4 -7 -17 -7 -28 0 -16 -3 -17 -9 -8 -14 23 -46 10
-46 -18 0 -18 6 -26 23 -28 16 -2 22 2 22 15 1 15 2 16 10 3 6 -11 26 -16 64
-18 54 -1 55 -1 54 28 -1 25 -5 30 -26 30 -19 0 -23 -4 -19 -20 3 -14 0 -20
-10 -20 -10 0 -14 6 -10 20 3 11 0 20 -5 20 -6 0 -16 7 -22 16 -6 8 -15 12
-19 8z"/>
<path d="M4125 3028 c11 -35 24 -45 35 -28 7 10 10 11 10 3 0 -23 20 -14 31
13 11 30 3 46 -11 24 -7 -10 -10 -11 -10 -2 0 6 -6 12 -14 12 -8 0 -17 -6 -19
-12 -4 -10 -6 -10 -6 0 -1 6 -6 12 -12 12 -6 0 -8 -9 -4 -22z"/>
<path d="M4217 3036 c-10 -26 4 -47 27 -44 15 2 21 10 21 28 0 29 -38 41 -48
16z"/>
<path d="M4545 3070 c-3 -5 1 -10 9 -10 12 0 16 -10 16 -35 0 -19 5 -35 10
-35 6 0 10 16 10 35 0 19 5 35 10 35 6 0 10 5 10 10 0 6 -13 10 -29 10 -17 0
-33 -4 -36 -10z"/>
<path d="M4630 3063 c-10 -12 -11 -18 -2 -21 7 -2 12 -15 12 -28 0 -13 5 -24
10 -24 6 0 10 20 10 45 0 48 -6 54 -30 28z"/>
<path d="M4759 3063 c-12 -15 -12 -16 3 -10 26 9 30 -8 8 -28 -28 -25 -25 -35
10 -35 17 0 30 5 30 10 0 6 -5 10 -10 10 -7 0 -7 6 0 19 14 26 13 29 -9 40
-14 8 -22 7 -32 -6z"/>
<path d="M5070 3036 c0 -25 5 -46 10 -46 6 0 10 6 10 13 0 8 3 9 8 1 8 -13 79
-17 86 -5 3 4 2 17 -1 29 -7 28 -56 32 -51 5 1 -10 -2 -18 -7 -18 -6 0 -10 8
-9 18 0 11 -4 16 -13 13 -7 -3 -13 1 -13 9 0 7 -4 17 -10 20 -6 4 -10 -12 -10
-39z"/>
<path d="M4851 3022 c8 -23 16 -29 39 -29 23 0 31 6 39 29 8 22 7 28 -5 28 -7
0 -14 -6 -14 -12 0 -9 -4 -8 -10 2 -9 13 -11 13 -20 0 -6 -10 -10 -11 -10 -2
0 6 -7 12 -14 12 -12 0 -13 -6 -5 -28z"/>
<path d="M4944 3035 c-9 -23 3 -45 26 -45 12 0 20 7 20 17 0 15 1 15 13 -1 18
-24 51 -17 55 12 4 27 -23 40 -49 23 -12 -7 -19 -7 -19 -1 0 16 -40 12 -46 -5z"/>
<path d="M4680 3020 c0 -5 9 -10 20 -10 11 0 20 5 20 10 0 6 -9 10 -20 10 -11
0 -20 -4 -20 -10z"/>
<path d="M5560 3070 c0 -5 5 -10 10 -10 6 0 10 -16 10 -35 0 -24 5 -35 15 -35
10 0 15 11 15 35 0 19 5 35 10 35 6 0 10 5 10 10 0 6 -16 10 -35 10 -19 0 -35
-4 -35 -10z"/>
<path d="M5649 3063 c-11 -13 -11 -17 -1 -20 6 -3 12 -16 12 -29 0 -13 5 -24
10 -24 12 0 13 77 1 84 -5 3 -15 -2 -22 -11z"/>
<path d="M7050 3030 l0 -100 488 0 487 0 0 100 0 100 -487 0 -488 0 0 -100z
m960 5 l0 -85 -475 0 -475 0 0 85 0 85 475 0 475 0 0 -85z"/>
<path d="M7470 3070 c0 -5 5 -10 10 -10 6 0 10 -16 10 -35 0 -24 5 -35 15 -35
10 0 15 11 15 35 0 19 5 35 10 35 6 0 10 5 10 10 0 6 -16 10 -35 10 -19 0 -35
-4 -35 -10z"/>
<path d="M7563 3073 c-7 -3 -13 -9 -13 -15 0 -6 7 -8 15 -4 20 7 19 -1 -6 -32
l-21 -27 27 -3 c31 -4 45 5 26 17 -9 6 -10 11 -2 15 28 17 5 60 -26 49z"/>
<path d="M6440 3000 c0 -5 5 -10 10 -10 6 0 10 5 10 10 0 6 -4 10 -10 10 -5 0
-10 -4 -10 -10z"/>
<path d="M6470 3000 c0 -5 5 -10 10 -10 6 0 10 5 10 10 0 6 -4 10 -10 10 -5 0
-10 -4 -10 -10z"/>
<path d="M6500 3000 c0 -5 5 -10 10 -10 6 0 10 5 10 10 0 6 -4 10 -10 10 -5 0
-10 -4 -10 -10z"/>
<path d="M6530 3000 c0 -5 5 -10 10 -10 6 0 10 5 10 10 0 6 -4 10 -10 10 -5 0
-10 -4 -10 -10z"/>
<path d="M6560 3000 c0 -5 5 -10 10 -10 6 0 10 5 10 10 0 6 -4 10 -10 10 -5 0
-10 -4 -10 -10z"/>
<path d="M6600 3000 c0 -5 5 -10 10 -10 6 0 10 5 10 10 0 6 -4 10 -10 10 -5 0
-10 -4 -10 -10z"/>
<path d="M6630 3000 c0 -5 5 -10 10 -10 6 0 10 5 10 10 0 6 -4 10 -10 10 -5 0
-10 -4 -10 -10z"/>
<path d="M150 2280 l0 -480 2940 0 2940 0 0 480 0 480 -405 0 -405 0 0 -380 0
-380 -1095 0 -1095 0 0 380 0 380 -1440 0 -1440 0 0 -480z m770 95 l0 -375
-375 0 -375 0 0 375 0 375 375 0 375 0 0 -375z m720 0 l0 -375 -355 0 -355 0
0 368 c0 203 3 372 7 375 3 4 163 7 355 7 l348 0 0 -375z m750 0 l0 -375 -370
0 -370 0 0 375 0 375 370 0 370 0 0 -375z m620 0 l0 -375 -305 0 -305 0 0 375
0 375 305 0 305 0 0 -375z m3010 0 l0 -375 -395 0 -395 0 0 375 0 375 395 0
395 0 0 -375z m-3422 -442 c-13 -3 -19 -16 -20 -41 l-1 -37 -4 37 c-3 24 -10
38 -21 41 -9 3 1 5 23 5 22 0 32 -2 23 -5z m270 -35 c-1 -37 -2 -39 -5 -10 -2
17 -9 32 -14 32 -6 0 -7 5 -4 10 14 23 25 7 23 -32z m262 27 c0 -10 6 -12 18
-8 14 6 15 4 4 -9 -9 -11 -10 -18 -2 -23 5 -3 10 -11 10 -17 0 -7 -6 -6 -15 2
-10 9 -15 9 -15 1 0 -6 -4 -11 -10 -11 -5 0 -10 11 -10 25 0 34 -18 32 -23 -2
-4 -26 -4 -26 -6 5 -1 22 3 32 14 32 8 0 15 5 15 10 0 6 5 10 10 10 6 0 10 -7
10 -15z m-480 -20 c0 -8 -9 -15 -21 -15 -12 0 -17 -4 -14 -11 4 -6 13 -8 21
-5 8 3 14 1 14 -4 0 -16 -40 -11 -46 5 -9 23 3 45 26 45 11 0 20 -7 20 -15z
m138 -17 c2 -16 -1 -28 -7 -28 -6 0 -11 12 -11 27 0 29 -15 22 -23 -12 -4 -15
-5 -13 -6 8 -1 34 -21 36 -21 2 0 -14 -4 -25 -10 -25 -5 0 -10 11 -10 25 0 34
-18 32 -23 -2 -4 -26 -4 -25 -6 5 l-1 33 58 -3 c54 -3 57 -4 60 -30z m152 15
c1 -17 1 -17 11 0 10 18 11 18 25 0 13 -17 13 -17 14 1 0 11 3 17 6 13 9 -9
-5 -57 -16 -57 -6 0 -10 8 -10 17 0 15 -1 15 -13 -2 -13 -17 -15 -16 -25 13
-7 19 -7 32 -1 32 5 0 9 -8 9 -17z m124 2 c8 -23 -4 -45 -25 -45 -11 0 -22 7
-25 15 -9 23 3 45 25 45 10 0 21 -7 25 -15z m126 -15 c0 -16 -4 -30 -10 -30
-5 0 -10 14 -10 30 0 17 5 30 10 30 6 0 10 -13 10 -30z m59 -2 c-2 -32 -2 -32
-6 -5 -5 33 -25 31 -34 -4 -6 -21 -7 -21 -8 9 -1 28 2 32 24 32 22 0 25 -4 24
-32z m71 8 c0 -39 -11 -56 -34 -55 -20 0 -20 1 -2 8 19 7 19 8 -2 13 -13 4
-22 14 -22 25 0 26 8 33 37 33 18 0 23 -6 23 -24z m88 -13 c-2 -30 -8 -39 -24
-41 -18 -3 -21 3 -22 38 -2 37 0 40 24 40 23 0 25 -3 22 -37z m106 21 c9 -24
-5 -45 -28 -42 -13 2 -22 12 -24 26 -5 30 -22 28 -22 -3 0 -14 -4 -25 -10 -25
-5 0 -10 13 -10 29 0 28 2 29 44 29 29 0 46 -5 50 -14z m37 -34 c5 0 9 11 9
25 0 14 5 25 10 25 6 0 10 -13 10 -30 0 -25 -4 -30 -25 -30 -22 0 -25 4 -24
33 2 30 2 30 6 5 2 -16 9 -28 14 -28z m92 38 c6 -18 -11 -48 -28 -48 -7 0 -16
-6 -18 -12 -3 -7 -6 6 -6 30 -1 38 1 42 23 42 13 0 26 -6 29 -12z"/>
<path d="M330 2695 c0 -23 22 -85 30 -85 4 0 12 15 16 33 l7 32 9 -32 c5 -18
12 -33 17 -33 10 0 34 80 26 88 -3 3 -8 -4 -12 -16 -6 -25 -23 -30 -23 -8 0
28 -20 27 -32 -1 -10 -25 -12 -26 -16 -8 -4 22 -22 45 -22 30z"/>
<path d="M546 2688 c-5 -10 -14 -18 -22 -18 -9 0 -14 -11 -13 -32 1 -22 3 -26
6 -13 8 34 23 41 23 12 0 -15 5 -27 10 -27 6 0 10 5 10 12 0 9 3 9 12 0 7 -7
20 -12 30 -12 13 0 18 8 18 30 0 17 -4 30 -10 30 -5 0 -10 -12 -10 -26 0 -15
-4 -23 -11 -18 -6 3 -8 15 -6 26 4 14 1 18 -8 14 -9 -3 -15 3 -18 17 -3 19 -4
20 -11 5z"/>
<path d="M444 2656 c-10 -26 4 -48 28 -44 17 2 23 10 23 28 0 18 -6 26 -23 28
-13 2 -25 -3 -28 -12z m36 -16 c0 -11 -4 -20 -10 -20 -5 0 -10 9 -10 20 0 11
5 20 10 20 6 0 10 -9 10 -20z"/>
<path d="M631 2638 c1 -28 2 -30 7 -10 4 13 12 23 17 23 6 0 13 -10 17 -23 5
-20 6 -18 7 10 1 28 -2 32 -24 32 -22 0 -25 -4 -24 -32z"/>
<path d="M696 2661 c-9 -14 -3 -65 8 -73 21 -14 46 12 46 47 0 30 -3 35 -24
35 -14 0 -27 -4 -30 -9z m34 -15 c0 -8 -4 -18 -10 -21 -5 -3 -10 3 -10 14 0
12 5 21 10 21 6 0 10 -6 10 -14z m-3 -42 c-3 -3 -12 -4 -19 -1 -8 3 -5 6 6 6
11 1 17 -2 13 -5z"/>
<path d="M399 2518 c-3 -30 4 -64 14 -70 21 -13 37 5 37 43 0 35 -3 39 -25 39
-14 0 -25 -6 -26 -12z m34 -4 c9 -9 -4 -35 -14 -28 -5 3 -9 12 -9 20 0 14 12
19 23 8z"/>
<path d="M460 2499 c0 -16 5 -29 10 -29 6 0 10 11 10 25 0 31 17 33 22 3 3
-26 36 -37 50 -16 7 10 11 10 15 1 2 -7 16 -13 29 -13 20 0 24 5 24 30 0 17
-4 30 -10 30 -5 0 -10 -11 -10 -25 0 -14 -4 -25 -10 -25 -5 0 -10 11 -10 25 0
14 -4 25 -10 25 -5 0 -10 -6 -10 -12 0 -9 -2 -10 -8 -2 -4 7 -26 12 -49 12
-41 1 -43 -1 -43 -29z m80 1 c0 -11 -4 -20 -9 -20 -14 0 -23 18 -16 30 10 17
25 11 25 -10z"/>
<path d="M630 2490 c0 -22 5 -40 10 -40 6 0 10 5 10 10 0 6 6 10 14 10 8 0 16
7 20 15 9 25 -4 45 -30 45 -21 0 -24 -4 -24 -40z m40 10 c0 -11 -4 -20 -10
-20 -5 0 -10 9 -10 20 0 11 5 20 10 20 6 0 10 -9 10 -20z"/>
<path d="M460 2370 c0 -22 5 -40 10 -40 6 0 10 18 10 40 0 22 -4 40 -10 40 -5
0 -10 -18 -10 -40z"/>
<path d="M638 2399 c-6 -17 3 -69 11 -69 7 0 6 69 -2 76 -3 3 -7 0 -9 -7z"/>
<path d="M272 2360 c-1 -27 3 -30 28 -30 16 0 31 -6 33 -12 4 -9 8 -10 14 -2
4 6 16 13 26 17 29 11 18 51 -15 55 -22 3 -27 -1 -31 -25 l-4 -28 -2 28 c-1
21 -6 27 -24 27 -20 0 -24 -5 -25 -30z m101 14 c9 -9 -4 -35 -14 -28 -5 3 -9
12 -9 20 0 14 12 19 23 8z m-68 -24 c-3 -5 -12 -10 -18 -10 -7 0 -6 4 3 10 19
12 23 12 15 0z"/>
<path d="M401 2343 c1 -27 3 -41 6 -32 2 10 13 19 24 22 13 3 19 14 19 31 0
21 -5 26 -25 26 -23 0 -25 -3 -24 -47z m34 7 c-5 -8 -11 -8 -17 -2 -6 6 -7 16
-3 22 5 8 11 8 17 2 6 -6 7 -16 3 -22z"/>
<path d="M492 2360 c0 -19 2 -27 5 -17 2 9 2 25 0 35 -3 9 -5 1 -5 -18z"/>
<path d="M515 2379 c-4 -5 -4 -18 0 -28 5 -15 16 -19 61 -20 54 0 55 0 52 27
-3 25 -6 27 -55 29 -29 1 -55 -3 -58 -8z m58 -9 c13 -1 -22 -30 -35 -30 -4 0
-8 9 -8 21 0 15 4 19 16 15 9 -3 21 -6 27 -6z m37 -20 c0 -5 -5 -10 -11 -10
-5 0 -7 5 -4 10 3 6 8 10 11 10 2 0 4 -4 4 -10z"/>
<path d="M672 2360 c0 -19 2 -27 5 -17 2 9 2 25 0 35 -3 9 -5 1 -5 -18z"/>
<path d="M697 2376 c-10 -26 4 -47 27 -44 15 2 21 10 21 28 0 29 -38 41 -48
16z m36 -2 c8 -8 -3 -34 -14 -34 -5 0 -9 9 -9 20 0 19 11 26 23 14z"/>
<path d="M761 2358 c1 -28 2 -30 7 -10 4 13 12 23 17 23 6 0 13 -10 17 -23 5
-20 6 -18 7 10 1 28 -2 32 -24 32 -22 0 -25 -4 -24 -32z"/>
<path d="M340 2211 c0 -23 5 -41 10 -41 6 0 10 4 10 9 0 5 9 11 21 14 32 9 22
51 -13 55 -27 3 -28 1 -28 -37z m40 9 c0 -11 -4 -20 -10 -20 -5 0 -10 9 -10
20 0 11 5 20 10 20 6 0 10 -9 10 -20z"/>
<path d="M411 2218 c1 -22 3 -26 6 -13 3 11 10 26 15 33 8 9 6 12 -6 12 -12 0
-16 -9 -15 -32z"/>
<path d="M447 2238 c-8 -26 5 -49 27 -46 15 2 22 11 24 31 3 23 0 27 -22 27
-13 0 -26 -6 -29 -12z m38 -16 c0 -18 -20 -15 -23 4 -3 10 1 15 10 12 7 -3 13
-10 13 -16z"/>
<path d="M514 2235 c-9 -23 3 -45 26 -45 11 0 20 5 20 10 0 6 -8 10 -17 8 -11
-2 -18 3 -18 12 0 8 8 14 18 14 9 -1 17 2 17 7 0 15 -40 10 -46 -6z"/>
<path d="M570 2220 c0 -25 4 -30 25 -30 14 0 25 5 25 11 0 6 -7 9 -15 6 -8 -4
-17 -2 -20 3 -4 6 3 10 14 10 12 0 21 7 21 15 0 9 -9 15 -25 15 -21 0 -25 -5
-25 -30z"/>
<path d="M630 2237 c0 -8 10 -19 23 -26 l22 -11 -24 6 c-16 4 -21 3 -17 -5 10
-16 46 -13 46 4 0 7 -8 19 -17 25 -17 11 -17 11 0 6 9 -3 17 -1 17 4 0 6 -11
10 -25 10 -14 0 -25 -6 -25 -13z"/>
<path d="M690 2239 c0 -6 8 -18 18 -26 16 -14 16 -14 0 -9 -10 3 -18 1 -18 -5
0 -6 10 -9 23 -7 31 4 31 52 -1 56 -12 2 -22 -2 -22 -9z"/>
<path d="M378 2124 c-5 -4 -8 -25 -8 -46 0 -37 2 -39 28 -36 35 4 45 46 13 55
-11 3 -21 12 -23 20 -2 8 -6 11 -10 7z m35 -40 c9 -9 -4 -35 -14 -28 -5 3 -9
12 -9 20 0 14 12 19 23 8z"/>
<path d="M444 2085 c-9 -23 3 -45 26 -45 11 0 20 4 20 10 0 5 -7 7 -15 4 -8
-4 -15 -1 -15 6 0 20 45 6 48 -15 10 -53 52 -35 52 21 0 29 -4 34 -23 34 -13
0 -28 -5 -35 -12 -9 -9 -12 -9 -12 0 0 17 -40 15 -46 -3z m96 -15 c0 -11 -4
-20 -10 -20 -5 0 -10 9 -10 20 0 11 5 20 10 20 6 0 10 -9 10 -20z"/>
<path d="M572 2070 c0 -19 2 -27 5 -17 2 9 2 25 0 35 -3 9 -5 1 -5 -18z"/>
<path d="M590 2071 c0 -17 5 -31 10 -31 6 0 10 11 10 25 0 14 5 25 10 25 6 0
10 -11 10 -25 0 -14 5 -25 11 -25 6 0 9 12 7 28 -2 21 -9 28 -30 30 -25 3 -28
0 -28 -27z"/>
<path d="M660 2089 c0 -7 8 -18 18 -26 16 -14 16 -14 0 -9 -10 3 -18 1 -18 -4
0 -12 37 -13 44 -2 10 17 -7 52 -25 52 -11 0 -19 -5 -19 -11z"/>
<path d="M1117 2694 c-4 -4 -7 -17 -8 -28 0 -20 -1 -20 -11 2 -18 36 -27 25
-16 -18 12 -47 23 -51 35 -13 l10 28 6 -28 c10 -39 24 -33 32 14 8 46 -1 65
-11 24 l-7 -28 -11 27 c-6 15 -14 24 -19 20z"/>
<path d="M1292 2655 c-1 -31 2 -45 7 -36 6 9 11 10 15 2 4 -6 16 -11 27 -11
14 0 19 7 19 30 0 17 -4 30 -10 30 -5 0 -10 -12 -10 -26 0 -15 -4 -23 -11 -18
-6 3 -8 15 -6 26 4 14 1 18 -8 14 -9 -3 -15 4 -18 17 -2 12 -5 0 -5 -28z"/>
<path d="M1191 2670 c-7 -4 -11 -18 -9 -31 5 -35 42 -33 46 2 3 28 -16 43 -37
29z m29 -24 c0 -8 -4 -17 -9 -21 -12 -7 -24 12 -16 25 9 15 25 12 25 -4z"/>
<path d="M1251 2638 c2 -28 2 -29 6 -8 3 14 10 28 17 32 7 5 5 8 -6 8 -14 0
-18 -8 -17 -32z"/>
<path d="M1370 2640 c0 -16 5 -30 10 -30 6 0 10 11 10 25 0 34 18 32 23 -2 4
-26 4 -26 6 5 1 28 -2 32 -24 32 -21 0 -25 -5 -25 -30z"/>
<path d="M1436 2655 c-8 -22 3 -45 23 -46 13 0 12 -2 -4 -10 -18 -8 -18 -8 5
-6 21 2 25 8 28 40 3 33 1 37 -21 37 -14 0 -27 -7 -31 -15z m34 -16 c0 -11 -4
-17 -10 -14 -5 3 -10 13 -10 21 0 8 5 14 10 14 6 0 10 -9 10 -21z"/>
<path d="M1388 2532 c-14 -2 -18 -14 -18 -43 0 -21 5 -39 10 -39 6 0 10 4 10
9 0 5 9 11 20 14 39 10 17 68 -22 59z m22 -32 c0 -11 -4 -20 -10 -20 -5 0 -10
9 -10 20 0 11 5 20 10 20 6 0 10 -9 10 -20z"/>
<path d="M1147 2523 c-15 -14 -6 -44 16 -53 22 -9 22 -9 -3 -10 -19 0 -21 -3
-11 -9 25 -16 41 -1 41 40 0 31 -4 39 -18 39 -10 0 -22 -3 -25 -7z m33 -23 c0
-11 -4 -20 -9 -20 -11 0 -22 26 -14 34 12 12 23 5 23 -14z"/>
<path d="M1211 2497 c2 -30 2 -31 6 -4 5 34 19 35 27 1 9 -35 51 -31 51 6 0
22 -4 25 -42 27 -42 2 -43 1 -42 -30z m69 3 c0 -11 -4 -20 -10 -20 -5 0 -10 9
-10 20 0 11 5 20 10 20 6 0 10 -9 10 -20z"/>
<path d="M1311 2503 c-1 -29 2 -33 24 -33 22 0 25 4 24 33 -1 27 -2 29 -7 9
-4 -13 -11 -23 -17 -23 -5 0 -13 10 -17 23 -5 20 -6 18 -7 -9z"/>
<path d="M1203 2375 c0 -27 2 -38 4 -22 2 15 2 37 0 50 -2 12 -4 0 -4 -28z"/>
<path d="M1378 2398 c-7 -20 4 -68 16 -68 9 0 12 25 7 73 -1 11 -19 8 -23 -5z"/>
<path d="M1148 2392 c-14 -2 -18 -14 -18 -43 0 -21 5 -39 10 -39 6 0 10 4 10
9 0 5 9 11 20 14 39 10 17 68 -22 59z m22 -32 c0 -11 -4 -20 -10 -20 -5 0 -10
9 -10 20 0 11 5 20 10 20 6 0 10 -9 10 -20z"/>
<path d="M1008 2366 c-6 -31 -2 -36 29 -36 21 0 24 4 21 28 -4 38 -43 44 -50
8z m32 -16 c0 -5 -5 -10 -11 -10 -5 0 -7 5 -4 10 3 6 8 10 11 10 2 0 4 -4 4
-10z"/>
<path d="M1071 2343 c1 -27 3 -40 6 -30 2 9 13 17 24 17 14 0 19 7 19 30 0 25
-4 30 -25 30 -23 0 -25 -3 -24 -47z m34 19 c0 -18 -20 -15 -23 4 -3 10 1 15
10 12 7 -3 13 -10 13 -16z"/>
<path d="M1232 2360 c0 -19 2 -27 5 -17 2 9 2 25 0 35 -3 9 -5 1 -5 -18z"/>
<path d="M1254 2375 c-12 -31 3 -42 61 -43 55 0 56 0 53 26 -4 35 -48 46 -48
13 0 -12 -4 -21 -9 -21 -5 0 -16 -3 -25 -6 -12 -4 -16 0 -16 16 0 17 4 20 21
15 15 -5 19 -4 15 4 -10 16 -46 13 -52 -4z m96 -25 c0 -5 -5 -10 -11 -10 -5 0
-7 5 -4 10 3 6 8 10 11 10 2 0 4 -4 4 -10z"/>
<path d="M1422 2360 c0 -19 2 -27 5 -17 2 9 2 25 0 35 -3 9 -5 1 -5 -18z"/>
<path d="M1445 2380 c-12 -20 6 -51 28 -48 31 4 31 52 0 56 -11 2 -24 -2 -28
-8z m35 -20 c0 -11 -4 -20 -10 -20 -5 0 -10 9 -10 20 0 11 5 20 10 20 6 0 10
-9 10 -20z"/>
<path d="M1511 2358 c1 -28 2 -30 7 -10 4 13 12 23 17 23 6 0 13 -10 17 -23 5
-20 6 -18 7 10 1 28 -2 32 -24 32 -22 0 -25 -4 -24 -32z"/>
<path d="M1098 2252 c-14 -2 -18 -14 -18 -43 0 -21 5 -39 10 -39 6 0 10 4 10
9 0 5 9 11 20 14 39 10 17 68 -22 59z m22 -32 c0 -11 -4 -20 -10 -20 -5 0 -10
9 -10 20 0 11 5 20 10 20 6 0 10 -9 10 -20z"/>
<path d="M1163 2253 c-7 -3 -12 -19 -12 -36 1 -22 3 -25 6 -12 3 11 10 26 16
33 12 15 7 21 -10 15z"/>
<path d="M1201 2250 c-7 -4 -11 -18 -9 -31 5 -35 42 -33 46 2 3 28 -16 43 -37
29z m29 -24 c0 -8 -4 -17 -9 -21 -12 -7 -24 12 -16 25 9 15 25 12 25 -4z"/>
<path d="M1253 2234 c-11 -30 5 -42 56 -42 28 0 51 4 51 9 0 5 -7 6 -15 3 -8
-4 -15 -1 -15 5 0 6 9 11 20 11 12 0 17 5 14 14 -7 19 -103 19 -111 0z m47 -4
c13 -9 13 -11 0 -20 -22 -15 -30 -12 -30 10 0 22 8 25 30 10z"/>
<path d="M1380 2239 c0 -7 8 -18 18 -26 16 -13 15 -13 -7 -7 -14 4 -21 2 -17
-4 9 -15 106 -12 106 4 0 7 -8 18 -17 24 -17 11 -17 11 0 6 9 -3 17 -1 17 4 0
13 -37 13 -45 1 -3 -5 5 -17 17 -25 26 -18 20 -20 -16 -6 -17 6 -24 14 -20 25
4 10 0 15 -15 15 -12 0 -21 -5 -21 -11z"/>
<path d="M1330 2115 c0 -8 -9 -15 -20 -15 -16 0 -20 -7 -20 -30 0 -25 4 -30
25 -30 23 0 25 4 25 45 0 25 -2 45 -5 45 -3 0 -5 -7 -5 -15z m-5 -55 c-5 -8
-11 -8 -17 -2 -6 6 -7 16 -3 22 5 8 11 8 17 2 6 -6 7 -16 3 -22z"/>
<path d="M1243 2103 c-7 -3 -12 -19 -12 -36 2 -31 2 -31 6 -4 5 34 23 36 23 2
0 -14 5 -25 10 -25 14 0 12 46 -2 57 -7 6 -19 8 -25 6z"/>
<path d="M1164 2085 c-9 -23 3 -45 26 -45 11 0 20 4 20 10 0 5 -7 7 -15 4 -8
-4 -15 -1 -15 5 0 6 9 11 20 11 13 0 18 5 14 15 -4 8 -15 15 -25 15 -11 0 -22
-7 -25 -15z"/>
<path d="M1360 2089 c0 -7 8 -18 18 -26 16 -13 15 -13 -7 -7 -16 4 -21 3 -17
-5 9 -13 43 -15 51 -2 3 5 1 12 -4 16 -6 3 -8 12 -4 20 3 10 -2 15 -16 15 -12
0 -21 -5 -21 -11z"/>
<path d="M1810 2695 c0 -23 22 -85 30 -85 4 0 12 15 16 33 l7 32 9 -32 c5 -18
12 -33 17 -33 10 0 34 80 26 88 -3 3 -8 -4 -12 -16 -6 -25 -23 -30 -23 -8 0
28 -20 27 -32 -1 -10 -25 -12 -26 -16 -8 -4 22 -22 45 -22 30z"/>
<path d="M2026 2688 c-5 -10 -14 -18 -22 -18 -9 0 -14 -11 -13 -32 1 -22 3
-26 6 -13 8 34 23 41 23 12 0 -15 5 -27 10 -27 6 0 10 5 10 12 0 9 3 9 12 0 7
-7 20 -12 30 -12 13 0 18 8 18 30 0 17 -4 30 -10 30 -5 0 -10 -12 -10 -26 0
-15 -4 -23 -11 -18 -6 3 -8 15 -6 26 4 14 1 18 -8 14 -9 -3 -15 3 -18 17 -3
19 -4 20 -11 5z"/>
<path d="M1924 2656 c-10 -26 4 -48 28 -44 17 2 23 10 23 28 0 18 -6 26 -23
28 -13 2 -25 -3 -28 -12z m36 -16 c0 -11 -4 -20 -10 -20 -5 0 -10 9 -10 20 0
11 5 20 10 20 6 0 10 -9 10 -20z"/>
<path d="M2111 2638 c1 -28 2 -30 7 -10 4 13 12 23 17 23 6 0 13 -10 17 -23 5
-20 6 -18 7 10 1 28 -2 32 -24 32 -22 0 -25 -4 -24 -32z"/>
<path d="M2176 2661 c-9 -14 -3 -65 8 -73 21 -14 46 12 46 47 0 30 -3 35 -24
35 -14 0 -27 -4 -30 -9z m34 -15 c0 -8 -4 -18 -10 -21 -5 -3 -10 3 -10 14 0
12 5 21 10 21 6 0 10 -6 10 -14z m-3 -42 c-3 -3 -12 -4 -19 -1 -8 3 -5 6 6 6
11 1 17 -2 13 -5z"/>
<path d="M1879 2518 c-3 -30 4 -64 14 -70 21 -13 37 5 37 43 0 35 -3 39 -25
39 -14 0 -25 -6 -26 -12z m34 -4 c9 -9 -4 -35 -14 -28 -5 3 -9 12 -9 20 0 14
12 19 23 8z"/>
<path d="M1940 2499 c0 -16 5 -29 10 -29 6 0 10 11 10 25 0 14 5 25 10 25 6 0
10 -9 10 -20 0 -26 27 -37 51 -21 12 7 19 7 19 1 0 -5 11 -10 25 -10 21 0 25
5 25 30 0 17 -4 30 -10 30 -5 0 -10 -11 -10 -25 0 -14 -4 -25 -10 -25 -5 0
-10 11 -10 23 0 22 -4 24 -60 25 -60 1 -60 1 -60 -29z m80 1 c0 -11 -4 -20
-10 -20 -5 0 -10 9 -10 20 0 11 5 20 10 20 6 0 10 -9 10 -20z"/>
<path d="M2110 2490 c0 -22 5 -40 10 -40 6 0 10 5 10 10 0 6 6 10 14 10 8 0
16 7 20 15 9 25 -4 45 -30 45 -21 0 -24 -4 -24 -40z m40 10 c0 -11 -4 -20 -10
-20 -5 0 -10 9 -10 20 0 11 5 20 10 20 6 0 10 -9 10 -20z"/>
<path d="M2040 2410 c0 -5 5 -10 11 -10 5 0 7 5 4 10 -3 6 -8 10 -11 10 -2 0
-4 -4 -4 -10z"/>
<path d="M2235 2408 c-3 -8 -7 -28 -8 -44 -2 -26 1 -29 30 -32 27 -3 31 -1 26
17 -3 12 -9 21 -12 21 -4 0 -7 10 -7 21 1 25 -21 38 -29 17z m20 -66 c-8 -8
-25 10 -19 20 4 6 9 5 15 -3 4 -7 6 -15 4 -17z"/>
<path d="M1944 2397 c-8 -21 -1 -60 11 -64 6 -2 10 12 9 33 -2 40 -11 54 -20
31z"/>
<path d="M1760 2361 c0 -28 1 -28 55 -29 54 0 55 0 55 29 0 24 -4 29 -25 29
-14 0 -25 -4 -25 -10 0 -5 8 -7 18 -4 9 3 1 -4 -18 -14 -37 -21 -50 -20 -50 4
0 11 6 13 21 9 15 -5 19 -4 15 4 -4 6 -16 11 -27 11 -14 0 -19 -7 -19 -29z
m90 -11 c0 -5 -5 -10 -11 -10 -5 0 -7 5 -4 10 3 6 8 10 11 10 2 0 4 -4 4 -10z"/>
<path d="M1881 2343 c1 -27 3 -41 6 -32 2 10 13 19 24 22 13 3 19 14 19 31 0
21 -5 26 -25 26 -23 0 -25 -3 -24 -47z m34 7 c-5 -8 -11 -8 -17 -2 -6 6 -7 16
-3 22 5 8 11 8 17 2 6 -6 7 -16 3 -22z"/>
<path d="M1980 2380 c0 -5 8 -7 18 -4 9 2 7 -1 -6 -7 -29 -16 -23 -33 11 -37
24 -3 27 0 27 27 0 26 -4 31 -25 31 -14 0 -25 -4 -25 -10z m30 -30 c0 -5 -5
-10 -11 -10 -5 0 -7 5 -4 10 3 6 8 10 11 10 2 0 4 -4 4 -10z"/>
<path d="M2040 2361 c0 -24 4 -31 20 -31 15 0 20 7 20 25 0 14 5 25 10 25 6 0
10 -11 10 -25 0 -14 5 -25 11 -25 6 0 9 12 7 28 -3 23 -8 27 -40 30 -36 3 -38
2 -38 -27z"/>
<path d="M2130 2379 c0 -6 8 -18 18 -26 16 -14 16 -14 0 -9 -10 3 -18 1 -18
-5 0 -6 10 -9 23 -7 31 4 31 52 -1 56 -12 2 -22 -2 -22 -9z"/>
<path d="M1930 2270 c0 -5 5 -10 11 -10 5 0 7 5 4 10 -3 6 -8 10 -11 10 -2 0
-4 -4 -4 -10z"/>
<path d="M1900 2261 c0 -6 -9 -11 -20 -11 -16 0 -20 -7 -20 -30 0 -16 5 -30
10 -30 6 0 10 11 10 25 0 14 5 25 10 25 6 0 10 -11 10 -25 0 -20 5 -25 25 -25
14 0 25 6 25 13 0 9 2 9 8 0 4 -6 22 -11 40 -11 28 1 32 4 32 28 0 26 -2 27
-50 27 -46 0 -50 -1 -50 -24 0 -15 -4 -22 -11 -17 -6 3 -8 17 -5 29 3 13 2 27
-4 30 -5 3 -10 1 -10 -4z m100 -31 c13 -9 13 -11 0 -20 -22 -15 -30 -12 -30
10 0 22 8 25 30 10z"/>
<path d="M2235 2258 c-4 -9 -5 -27 -3 -40 2 -17 10 -23 33 -25 52 -5 64 5 35
29 -16 13 -18 19 -7 15 9 -4 17 -2 17 3 0 13 -37 13 -45 1 -3 -5 4 -16 16 -24
20 -15 20 -15 -6 -13 -21 1 -26 5 -22 23 5 29 -9 54 -18 31z"/>
<path d="M1730 2210 c0 -22 5 -40 10 -40 6 0 10 5 10 10 0 6 7 10 15 10 8 0
15 5 15 12 0 9 3 9 12 0 7 -7 22 -12 35 -12 19 0 23 5 23 30 0 25 -4 30 -25
30 -14 0 -25 -4 -25 -10 0 -5 8 -7 18 -4 14 5 14 3 -2 -7 -16 -10 -21 -9 -31
5 -7 9 -22 16 -34 16 -18 0 -21 -6 -21 -40z m40 10 c0 -11 -4 -20 -10 -20 -5
0 -10 9 -10 20 0 11 5 20 10 20 6 0 10 -9 10 -20z m60 -10 c0 -5 -5 -10 -11
-10 -5 0 -7 5 -4 10 3 6 8 10 11 10 2 0 4 -4 4 -10z"/>
<path d="M2040 2210 c0 -22 5 -40 10 -40 6 0 10 5 10 10 0 6 6 10 14 10 8 0
17 6 19 13 4 10 6 10 6 0 1 -8 14 -13 32 -13 27 0 30 3 27 28 -2 21 -8 27 -28
27 -17 0 -24 -5 -22 -15 2 -11 -1 -11 -11 3 -8 9 -24 17 -36 17 -18 0 -21 -6
-21 -40z m40 10 c0 -11 -4 -20 -10 -20 -5 0 -10 9 -10 20 0 11 5 20 10 20 6 0
10 -9 10 -20z m60 -10 c0 -5 -5 -10 -11 -10 -5 0 -7 5 -4 10 3 6 8 10 11 10 2
0 4 -4 4 -10z"/>
<path d="M2171 2218 c1 -28 2 -30 7 -10 4 13 12 23 17 23 6 0 13 -10 17 -23 5
-20 6 -18 7 10 1 28 -2 32 -24 32 -22 0 -25 -4 -24 -32z"/>
<path d="M2290 2115 c0 -8 -9 -15 -20 -15 -11 0 -20 -5 -20 -12 0 -9 -3 -9
-12 0 -28 28 -66 3 -52 -33 7 -17 40 -20 50 -4 4 8 0 9 -15 4 -12 -4 -21 -2
-21 4 0 17 40 13 46 -4 4 -8 17 -15 30 -15 22 0 24 4 24 45 0 25 -2 45 -5 45
-3 0 -5 -7 -5 -15z m-10 -46 c0 -11 -4 -17 -10 -14 -5 3 -10 13 -10 21 0 8 5
14 10 14 6 0 10 -9 10 -21z"/>
<path d="M1742 2070 c-1 -28 1 -30 39 -30 35 0 39 3 39 25 0 14 5 25 10 25 6
0 10 -11 10 -25 0 -14 5 -25 11 -25 6 0 9 12 7 28 -2 21 -9 28 -30 30 -22 3
-27 -1 -31 -25 l-4 -28 -2 28 c-1 21 -6 27 -24 27 -20 0 -24 -5 -25 -30z m33
-10 c-3 -5 -12 -10 -18 -10 -7 0 -6 4 3 10 19 12 23 12 15 0z"/>
<path d="M1870 2070 c0 -16 5 -30 10 -30 6 0 10 11 10 25 0 34 18 32 23 -2 4
-26 4 -26 6 5 1 28 -2 32 -24 32 -21 0 -25 -5 -25 -30z"/>
<path d="M1934 2086 c-10 -26 4 -48 28 -44 17 2 23 10 23 28 0 18 -6 26 -23
28 -13 2 -25 -3 -28 -12z m36 -16 c0 -11 -4 -20 -10 -20 -5 0 -10 9 -10 20 0
11 5 20 10 20 6 0 10 -9 10 -20z"/>
<path d="M2001 2073 c-1 -29 2 -33 24 -33 22 0 25 4 25 33 l-1 32 -13 -30
c-14 -30 -15 -29 -29 15 -3 8 -6 0 -6 -17z"/>
<path d="M2060 2069 c0 -16 5 -29 10 -29 6 0 10 11 10 25 0 14 5 25 10 25 6 0
10 -11 10 -25 0 -26 15 -34 23 -12 4 10 6 10 6 0 1 -16 37 -17 47 -2 4 8 0 9
-15 4 -17 -5 -21 -2 -21 15 0 17 4 20 21 15 13 -4 19 -3 15 3 -3 5 -30 10 -61
10 -54 0 -55 0 -55 -29z"/>
<path d="M2500 2415 c0 -23 22 -85 30 -85 4 0 12 15 16 33 l7 32 9 -32 c5 -18
12 -33 17 -33 10 0 34 80 26 88 -3 3 -8 -4 -12 -16 -6 -25 -23 -30 -23 -8 0
28 -20 27 -32 -1 -10 -25 -12 -26 -16 -8 -4 22 -22 45 -22 30z"/>
<path d="M2714 2407 c-7 -13 -24 -19 -55 -20 -40 -2 -44 -4 -44 -27 0 -22 5
-25 38 -27 33 -1 37 2 37 23 0 13 5 24 10 24 6 0 10 -11 10 -25 0 -14 5 -25
10 -25 6 0 10 5 10 12 0 9 3 9 12 0 7 -7 20 -12 30 -12 13 0 18 8 18 30 0 17
-4 30 -10 30 -5 0 -10 -12 -10 -26 0 -15 -4 -23 -11 -18 -6 3 -8 15 -6 26 4
14 1 18 -8 14 -9 -3 -15 3 -17 17 -3 20 -4 21 -14 4z m-64 -47 c0 -11 -4 -20
-10 -20 -5 0 -10 9 -10 20 0 11 5 20 10 20 6 0 10 -9 10 -20z"/>
<path d="M2801 2358 c1 -28 2 -30 7 -10 4 13 12 23 17 23 6 0 13 -10 17 -23 5
-20 6 -18 7 10 1 28 -2 32 -24 32 -22 0 -25 -4 -24 -32z"/>
<path d="M2866 2381 c-9 -14 -3 -65 8 -73 21 -14 46 12 46 47 0 30 -3 35 -24
35 -14 0 -27 -4 -30 -9z m34 -15 c0 -8 -4 -18 -10 -21 -5 -3 -10 3 -10 14 0
12 5 21 10 21 6 0 10 -6 10 -14z m-3 -42 c-3 -3 -12 -4 -19 -1 -8 3 -5 6 6 6
11 1 17 -2 13 -5z"/>
<path d="M2569 2238 c-3 -30 4 -64 14 -70 21 -13 37 5 37 43 0 35 -3 39 -25
39 -14 0 -25 -6 -26 -12z m34 -4 c9 -9 -4 -35 -14 -28 -5 3 -9 12 -9 20 0 14
12 19 23 8z"/>
<path d="M2630 2219 c0 -16 5 -29 10 -29 6 0 10 11 10 25 0 31 17 33 22 3 3
-26 36 -37 50 -16 7 10 11 10 15 1 2 -7 16 -13 29 -13 20 0 24 5 24 30 0 17
-4 30 -10 30 -5 0 -10 -11 -10 -25 0 -14 -4 -25 -10 -25 -5 0 -10 11 -10 25 0
14 -4 25 -10 25 -5 0 -10 -6 -10 -12 0 -9 -2 -10 -8 -2 -4 7 -26 12 -49 12
-41 1 -43 -1 -43 -29z m80 1 c0 -11 -4 -20 -9 -20 -14 0 -23 18 -16 30 10 17
25 11 25 -10z"/>
<path d="M2800 2210 c0 -22 5 -40 10 -40 6 0 10 5 10 10 0 6 6 10 14 10 8 0
16 7 20 15 9 25 -4 45 -30 45 -21 0 -24 -4 -24 -40z m40 10 c0 -11 -4 -20 -10
-20 -5 0 -10 9 -10 20 0 11 5 20 10 20 6 0 10 -9 10 -20z"/>
<path d="M2470 2070 c0 -23 5 -30 19 -30 11 0 23 5 26 11 4 6 0 9 -11 7 -11
-2 -20 4 -22 15 -3 15 0 18 18 12 15 -5 20 -4 16 4 -4 6 -16 11 -27 11 -14 0
-19 -7 -19 -30z"/>
<path d="M2527 2086 c-10 -26 4 -47 27 -44 15 2 21 10 21 28 0 29 -38 41 -48
16z m36 -2 c8 -8 -3 -34 -14 -34 -5 0 -9 9 -9 20 0 19 11 26 23 14z"/>
<path d="M2590 2070 c0 -16 5 -30 10 -30 6 0 10 11 10 25 0 34 18 32 23 -2 4
-26 4 -26 6 5 1 28 -2 32 -24 32 -21 0 -25 -5 -25 -30z"/>
<path d="M2650 2095 c0 -11 24 -55 31 -55 4 0 12 14 18 30 11 34 5 39 -15 13
-13 -17 -13 -17 -14 0 0 14 -20 27 -20 12z"/>
<path d="M2714 2086 c-3 -9 -4 -23 0 -31 6 -17 42 -20 52 -4 4 8 0 9 -15 4
-12 -4 -21 -2 -21 4 0 6 9 11 21 11 27 0 19 24 -9 28 -13 2 -25 -3 -28 -12z"/>
<path d="M2781 2068 c1 -28 2 -30 7 -10 4 13 12 23 17 23 6 0 13 -10 17 -23 5
-20 6 -18 7 10 1 28 -2 32 -24 32 -22 0 -25 -4 -24 -32z"/>
<path d="M2844 2085 c-9 -23 3 -45 26 -45 11 0 20 4 20 10 0 5 -7 7 -15 4 -8
-4 -15 -2 -15 4 0 16 46 20 66 4 18 -13 18 -14 -5 -7 -16 5 -21 4 -17 -4 9
-13 43 -15 51 -2 3 5 -5 17 -17 27 -15 11 -17 14 -5 11 9 -4 17 -2 17 3 0 14
-34 12 -48 -2 -9 -9 -12 -9 -12 0 0 17 -40 15 -46 -3z"/>
<path d="M5421 2409 c-2 -34 12 -80 23 -76 6 2 13 14 17 28 l6 24 12 -28 c14
-35 28 -27 37 19 8 46 -2 56 -14 13 l-9 -34 -7 33 c-4 17 -11 32 -16 32 -5 0
-12 -15 -16 -32 l-7 -33 -13 35 c-7 19 -13 28 -13 19z"/>
<path d="M5630 2406 c0 -9 -9 -16 -20 -16 -16 0 -20 -7 -20 -30 0 -16 5 -30
10 -30 6 0 10 11 10 25 0 14 5 25 10 25 6 0 10 -11 10 -25 0 -14 5 -25 10 -25
6 0 10 6 10 13 0 8 3 7 10 -3 5 -8 12 -11 16 -7 4 3 2 13 -4 20 -9 10 -8 17 1
27 10 10 9 12 -5 7 -12 -4 -18 -1 -18 8 0 7 -4 17 -10 20 -5 3 -10 -1 -10 -9z"/>
<path d="M5527 2378 c-8 -26 5 -49 27 -46 15 2 22 11 24 31 3 23 0 27 -22 27
-13 0 -26 -6 -29 -12z m38 -16 c0 -18 -20 -15 -23 4 -3 10 1 15 10 12 7 -3 13
-10 13 -16z"/>
<path d="M5692 2360 c0 -19 2 -27 5 -17 2 9 2 25 0 35 -3 9 -5 1 -5 -18z"/>
<path d="M5710 2360 c0 -16 5 -30 10 -30 6 0 10 11 10 25 0 14 5 25 10 25 6 0
10 -11 10 -25 0 -29 16 -34 23 -7 3 11 5 8 6 -9 0 -15 7 -29 14 -31 25 -10 37
4 37 43 0 35 -3 39 -25 39 -14 0 -25 -5 -25 -12 0 -9 -3 -9 -12 0 -7 7 -22 12
-35 12 -19 0 -23 -5 -23 -30z m103 14 c9 -9 -4 -35 -14 -28 -5 3 -9 12 -9 20
0 14 12 19 23 8z"/>
<path d="M5486 2241 c-8 -12 4 -70 16 -77 17 -11 38 18 38 52 0 29 -3 34 -24
34 -14 0 -27 -4 -30 -9z m34 -21 c0 -11 -4 -20 -10 -20 -5 0 -10 9 -10 20 0
11 5 20 10 20 6 0 10 -9 10 -20z"/>
<path d="M5551 2218 c1 -22 3 -26 6 -13 3 11 10 26 15 33 8 9 6 12 -6 12 -12
0 -16 -9 -15 -32z"/>
<path d="M5587 2238 c-8 -26 5 -49 27 -46 15 2 22 11 24 31 3 23 0 27 -22 27
-13 0 -26 -6 -29 -12z m38 -16 c0 -18 -20 -15 -23 4 -3 10 1 15 10 12 7 -3 13
-10 13 -16z"/>
<path d="M5650 2220 c0 -25 4 -30 25 -30 22 0 25 4 24 33 -1 21 -3 25 -6 12
-8 -34 -23 -41 -23 -12 0 15 -4 27 -10 27 -5 0 -10 -13 -10 -30z"/>
<path d="M5710 2211 c0 -23 5 -41 10 -41 6 0 10 4 10 9 0 5 9 11 21 14 32 9
22 51 -13 55 -27 3 -28 1 -28 -37z m43 23 c9 -9 -4 -35 -14 -28 -5 3 -9 12 -9
20 0 14 12 19 23 8z"/>
<path d="M5430 2111 c0 -5 -9 -11 -21 -14 -32 -9 -22 -51 14 -55 26 -3 27 -1
27 37 0 23 -4 41 -10 41 -5 0 -10 -4 -10 -9z m0 -41 c0 -11 -4 -20 -10 -20 -5
0 -10 9 -10 20 0 11 5 20 10 20 6 0 10 -9 10 -20z"/>
<path d="M5660 2098 c0 -17 -3 -19 -9 -10 -14 23 -46 10 -46 -18 0 -28 32 -41
46 -18 6 10 9 10 9 1 0 -7 5 -13 10 -13 6 0 10 18 10 40 0 22 -4 40 -10 40 -5
0 -10 -10 -10 -22z m-20 -28 c0 -21 -15 -27 -25 -10 -7 12 2 30 16 30 5 0 9
-9 9 -20z"/>
<path d="M5462 2070 c0 -19 2 -27 5 -17 2 9 2 25 0 35 -3 9 -5 1 -5 -18z"/>
<path d="M5485 2091 c-3 -5 5 -17 17 -26 l23 -17 -24 7 c-15 5 -21 3 -17 -3 9
-15 106 -12 106 4 0 7 -8 18 -17 24 -17 11 -17 11 0 6 9 -3 17 -1 17 4 0 6
-11 10 -25 10 -31 0 -33 -23 -2 -39 22 -11 22 -11 -3 -5 -14 4 -34 13 -45 22
-16 11 -16 13 -2 9 9 -4 17 -2 17 3 0 13 -37 13 -45 1z"/>
<path d="M5695 2075 c4 -16 9 -32 11 -34 7 -7 21 12 28 39 6 22 6 23 -7 8 -12
-15 -14 -15 -25 0 -11 14 -12 12 -7 -13z"/>
<path d="M5750 2070 c0 -25 4 -30 25 -30 14 0 25 5 25 11 0 6 -7 9 -15 6 -8
-4 -17 -2 -20 3 -4 6 3 10 14 10 12 0 21 7 21 15 0 9 -9 15 -25 15 -21 0 -25
-5 -25 -30z"/>
<path d="M5810 2087 c0 -8 10 -19 23 -26 l22 -11 -24 6 c-16 4 -21 3 -17 -5
10 -16 46 -13 46 4 0 7 -8 19 -17 25 -17 11 -17 11 0 6 9 -3 17 -1 17 4 0 6
-11 10 -25 10 -14 0 -25 -6 -25 -13z"/>
<path d="M3025 1900 c-7 -12 2 -30 16 -30 5 0 9 9 9 20 0 21 -15 27 -25 10z"/>
<path d="M3275 1900 c-7 -12 2 -30 16 -30 5 0 9 9 9 20 0 21 -15 27 -25 10z"/>
<path d="M3370 1890 c0 -13 5 -20 13 -17 6 2 12 10 12 17 0 7 -6 15 -12 18 -8
2 -13 -5 -13 -18z"/>
<path d="M3378 1853 c7 -3 16 -2 19 1 4 3 -2 6 -13 5 -11 0 -14 -3 -6 -6z"/>
<path d="M3475 1900 c-7 -12 2 -30 16 -30 5 0 9 9 9 20 0 21 -15 27 -25 10z"/>
<path d="M3605 1900 c-7 -12 2 -30 16 -30 5 0 9 9 9 20 0 21 -15 27 -25 10z"/>
<path d="M3010 917 c0 -189 3 -405 7 -480 l6 -137 2499 0 2498 0 0 88 c0 48 1
264 3 480 l2 392 -487 0 -488 0 0 -380 0 -380 -510 0 -510 0 0 380 0 380
-1510 0 -1510 0 0 -343z m800 -47 l0 -370 -390 0 -390 0 0 370 0 370 390 0
390 0 0 -370z m690 0 l0 -370 -340 0 -340 0 0 370 0 370 340 0 340 0 0 -370z
m720 0 l0 -370 -355 0 -355 0 0 370 0 370 355 0 355 0 0 -370z m800 0 l0 -370
-395 0 -395 0 0 370 0 370 395 0 395 0 0 -370z m1990 0 l0 -370 -475 0 -475 0
0 370 0 370 475 0 475 0 0 -370z m-2980 -440 c0 -5 -4 -10 -10 -10 -5 0 -10
-16 -10 -35 0 -19 -4 -35 -10 -35 -5 0 -10 16 -10 35 0 19 -4 35 -10 35 -5 0
-10 5 -10 10 0 6 14 10 30 10 17 0 30 -4 30 -10z m280 -19 c0 -10 -7 -25 -16
-32 -14 -12 -14 -14 3 -20 13 -6 9 -8 -16 -8 l-35 -1 27 28 c32 33 34 46 7 39
-11 -3 -20 -1 -20 4 0 5 11 9 25 9 18 0 25 -5 25 -19z m263 -5 c18 5 20 4 10
-6 -8 -9 -9 -19 -2 -32 6 -11 6 -18 0 -18 -5 0 -12 6 -14 13 -4 9 -8 8 -16 -3
-9 -12 -11 -10 -11 13 0 15 -4 27 -10 27 -5 0 -10 -11 -10 -25 0 -14 -4 -25
-10 -25 -5 0 -10 14 -10 30 0 23 4 30 20 30 11 0 21 6 21 13 1 6 3 4 6 -6 3
-13 10 -16 26 -11z m-495 -13 c2 -8 -5 -13 -18 -13 -12 0 -18 -4 -15 -11 4 -6
14 -8 24 -4 12 5 13 3 4 -6 -18 -18 -43 -3 -43 26 0 21 4 26 22 23 12 -2 23
-9 26 -15z m136 1 c9 -24 7 -44 -4 -44 -5 0 -10 11 -10 25 0 34 -20 32 -21 -2
0 -16 -3 -21 -6 -13 -14 44 -15 45 -29 15 l-13 -30 -1 28 c0 15 -4 27 -10 27
-5 0 -10 -11 -10 -25 0 -14 -4 -25 -10 -25 -5 0 -10 14 -10 30 0 30 0 30 59
30 44 0 60 -4 65 -16z m166 -1 c0 20 16 23 23 5 4 -10 8 -9 17 2 9 12 10 9 5
-15 -8 -35 -16 -45 -22 -27 -4 10 -8 10 -19 1 -11 -9 -16 -6 -24 16 -14 36
-12 44 5 21 13 -17 15 -18 15 -3z m105 -13 c0 -38 -39 -35 -43 3 -3 25 0 28
20 25 17 -2 23 -9 23 -28z m122 -17 c-3 -10 -5 -2 -5 17 0 19 2 27 5 18 2 -10
2 -26 0 -35z m71 15 c2 -16 -1 -28 -7 -28 -6 0 -11 11 -11 25 0 34 -18 32 -23
-2 -4 -26 -4 -25 -6 5 -1 29 2 33 22 30 16 -2 23 -11 25 -30z m60 -5 c-2 -30
-8 -39 -24 -41 -18 -3 -21 3 -22 38 -2 37 0 40 24 40 23 0 25 -3 22 -37z m100
0 c-2 -30 -8 -39 -24 -41 -17 -2 -23 4 -28 29 -7 39 -1 49 30 49 23 0 25 -3
22 -37z m97 7 c0 -34 -39 -36 -43 -2 -4 29 -24 24 -33 -9 -6 -21 -7 -20 -8 9
-1 33 -1 33 42 30 37 -3 42 -6 42 -28z m35 5 c0 -14 5 -25 10 -25 6 0 10 11
10 25 0 14 5 25 10 25 6 0 10 -14 10 -31 0 -27 -3 -30 -27 -27 -22 2 -29 9
-31 31 -2 15 1 27 7 27 6 0 11 -11 11 -25z m98 -3 c2 -14 -3 -24 -15 -29 -10
-4 -21 -11 -25 -17 -4 -6 -8 8 -8 32 0 39 2 43 23 40 14 -2 23 -11 25 -26z"/>
<path d="M3215 1165 c4 -22 9 -43 11 -47 10 -15 24 -8 24 11 0 30 17 34 24 6
9 -36 20 -31 33 15 11 41 0 57 -13 18 -6 -21 -7 -20 -19 8 l-13 29 -15 -35
c-12 -25 -16 -29 -17 -15 0 11 -5 27 -11 35 -8 11 -9 5 -4 -25z"/>
<path d="M3420 1186 c0 -9 -9 -16 -20 -16 -16 0 -20 -7 -20 -30 0 -16 5 -30
10 -30 6 0 10 11 10 25 0 14 5 25 10 25 6 0 10 -11 10 -25 0 -14 5 -25 10 -25
6 0 10 6 10 13 0 8 3 7 10 -3 5 -8 12 -11 16 -7 4 3 2 13 -4 20 -9 10 -8 17 1
27 10 10 9 12 -5 7 -12 -4 -18 -1 -18 8 0 7 -4 17 -10 20 -5 3 -10 -1 -10 -9z"/>
<path d="M3480 1190 c0 -5 5 -10 11 -10 5 0 7 5 4 10 -3 6 -8 10 -11 10 -2 0
-4 -4 -4 -10z"/>
<path d="M3317 1158 c-8 -26 5 -49 27 -46 15 2 22 11 24 31 3 23 0 27 -22 27
-13 0 -26 -6 -29 -12z m38 -16 c0 -18 -20 -15 -23 4 -3 10 1 15 10 12 7 -3 13
-10 13 -16z"/>
<path d="M3480 1141 c0 -24 4 -31 20 -31 15 0 20 7 20 25 0 14 5 25 10 25 6 0
10 -11 10 -25 0 -14 5 -25 11 -25 6 0 9 12 7 28 -3 23 -8 27 -40 30 -36 3 -38
2 -38 -27z"/>
<path d="M3576 1161 c-9 -14 -3 -65 8 -73 20 -14 36 5 36 43 0 32 -4 39 -19
39 -11 0 -22 -4 -25 -9z m29 -31 c-5 -8 -11 -8 -17 -2 -6 6 -7 16 -3 22 5 8
11 8 17 2 6 -6 7 -16 3 -22z m2 -26 c-3 -3 -12 -4 -19 -1 -8 3 -5 6 6 6 11 1
17 -2 13 -5z"/>
<path d="M3276 1021 c-8 -12 4 -70 16 -77 17 -11 38 18 38 52 0 29 -3 34 -24
34 -14 0 -27 -4 -30 -9z m34 -21 c0 -11 -4 -20 -10 -20 -5 0 -10 9 -10 20 0
11 5 20 10 20 6 0 10 -9 10 -20z"/>
<path d="M3341 998 c1 -22 3 -26 6 -13 3 11 10 26 15 33 8 9 6 12 -6 12 -12 0
-16 -9 -15 -32z"/>
<path d="M3377 1018 c-8 -26 5 -49 27 -46 15 2 22 11 24 31 3 23 0 27 -22 27
-13 0 -26 -6 -29 -12z m38 -16 c0 -18 -20 -15 -23 4 -3 10 1 15 10 12 7 -3 13
-10 13 -16z"/>
<path d="M3442 1003 c2 -21 9 -29 28 -32 14 -1 28 -8 33 -15 5 -8 9 -8 15 0 4
6 15 13 25 17 12 5 17 15 15 29 -2 19 -10 24 -40 26 -35 3 -38 1 -38 -22 0
-14 -4 -26 -10 -26 -5 0 -10 11 -10 25 0 14 -5 25 -11 25 -6 0 -9 -12 -7 -27z
m101 11 c9 -9 -4 -35 -14 -28 -5 3 -9 12 -9 20 0 14 12 19 23 8z"/>
<path d="M3340 877 c0 -40 3 -47 20 -47 15 0 20 7 20 25 0 14 -9 35 -20 47
l-20 22 0 -47z"/>
<path d="M3515 898 c-12 -30 -1 -63 23 -66 19 -3 22 1 22 27 0 20 -5 31 -14
31 -8 0 -16 6 -19 13 -3 8 -7 7 -12 -5z m22 -50 c-3 -7 -5 -2 -5 12 0 14 2 19
5 13 2 -7 2 -19 0 -25z"/>
<path d="M3150 880 c0 -5 8 -7 18 -4 9 2 7 -1 -6 -7 -29 -16 -23 -33 11 -37
24 -3 27 0 27 27 0 26 -4 31 -25 31 -14 0 -25 -4 -25 -10z m30 -30 c0 -5 -5
-10 -11 -10 -5 0 -7 5 -4 10 3 6 8 10 11 10 2 0 4 -4 4 -10z"/>
<path d="M3210 850 c0 -22 5 -40 10 -40 6 0 10 5 10 10 0 6 6 10 14 10 8 0 17
6 19 13 3 6 6 2 6 -10 1 -21 21 -34 21 -14 0 5 9 11 21 14 30 8 22 51 -10 55
-13 2 -28 -2 -32 -10 -7 -10 -9 -10 -9 0 0 6 -11 12 -25 12 -22 0 -25 -4 -25
-40z m40 10 c0 -11 -4 -20 -10 -20 -5 0 -10 9 -10 20 0 11 5 20 10 20 6 0 10
-9 10 -20z m63 14 c9 -9 -4 -35 -14 -28 -5 3 -9 12 -9 20 0 14 12 19 23 8z"/>
<path d="M3394 875 c-12 -31 3 -43 55 -43 50 -1 51 0 51 29 0 24 -4 29 -25 29
-14 0 -25 -4 -25 -10 0 -5 8 -7 18 -3 13 4 12 2 -3 -10 -29 -22 -60 -25 -60
-7 0 8 8 14 18 14 9 -1 17 2 17 7 0 15 -40 10 -46 -6z"/>
<path d="M3574 875 c-4 -8 -4 -22 0 -30 7 -18 42 -20 49 -2 4 10 6 10 6 0 2
-24 21 -13 21 12 0 14 5 25 10 25 6 0 10 -11 10 -25 0 -14 5 -25 11 -25 6 0 9
12 7 28 -2 20 -9 28 -27 30 -13 2 -28 -2 -32 -10 -7 -10 -9 -10 -9 0 0 17 -39
15 -46 -3z m36 -15 c0 -11 -4 -20 -9 -20 -14 0 -23 18 -16 30 10 17 25 11 25
-10z"/>
<path d="M3220 700 c0 -22 5 -40 10 -40 6 0 10 5 10 10 0 6 6 10 14 10 8 0 17
6 19 13 4 10 6 10 6 0 2 -24 21 -13 21 12 0 31 17 33 22 3 2 -17 10 -23 28
-23 20 0 25 5 25 25 0 23 -4 25 -45 27 -26 1 -48 -3 -52 -10 -6 -9 -8 -9 -8 1
0 6 -11 12 -25 12 -22 0 -25 -4 -25 -40z m40 10 c0 -11 -4 -20 -10 -20 -5 0
-10 9 -10 20 0 11 5 20 10 20 6 0 10 -9 10 -20z m100 0 c0 -11 -4 -20 -10 -20
-5 0 -10 9 -10 20 0 11 5 20 10 20 6 0 10 -9 10 -20z"/>
<path d="M3390 710 c0 -23 5 -30 19 -30 11 0 23 5 26 11 4 6 0 9 -11 7 -11 -2
-20 4 -22 15 -3 15 0 18 18 12 15 -5 20 -4 16 4 -4 6 -16 11 -27 11 -14 0 -19
-7 -19 -30z"/>
<path d="M3447 726 c-14 -35 30 -66 49 -35 4 8 0 9 -15 4 -12 -4 -21 -2 -21 4
0 6 9 11 21 11 26 0 20 24 -8 28 -11 2 -23 -4 -26 -12z"/>
<path d="M3510 729 c0 -6 8 -18 18 -26 16 -14 16 -14 0 -9 -10 3 -18 1 -18 -5
0 -6 10 -9 23 -7 31 4 31 52 -1 56 -12 2 -22 -2 -22 -9z"/>
<path d="M3570 729 c0 -7 8 -18 18 -26 16 -14 16 -14 0 -9 -10 3 -18 1 -18 -4
0 -12 37 -13 44 -2 10 17 -7 52 -25 52 -11 0 -19 -5 -19 -11z"/>
<path d="M3250 580 c0 -36 3 -40 24 -40 13 0 27 6 30 13 5 10 7 10 12 0 7 -16
40 -17 50 -2 4 8 0 9 -15 4 -12 -4 -21 -2 -21 4 0 6 9 11 21 11 12 0 19 5 17
13 -5 14 -48 23 -48 9 0 -6 -10 -5 -25 1 -14 7 -25 15 -25 20 0 4 -4 7 -10 7
-5 0 -10 -18 -10 -40z m40 -10 c0 -11 -4 -20 -10 -20 -5 0 -10 9 -10 20 0 11
5 20 10 20 6 0 10 -9 10 -20z"/>
<path d="M3386 591 c-9 -14 -3 -65 8 -73 20 -14 36 5 36 43 0 32 -4 39 -19 39
-11 0 -22 -4 -25 -9z m29 -31 c-5 -8 -11 -8 -17 -2 -6 6 -7 16 -3 22 5 8 11 8
17 2 6 -6 7 -16 3 -22z m2 -26 c-3 -3 -12 -4 -19 -1 -8 3 -5 6 6 6 11 1 17 -2
13 -5z"/>
<path d="M3440 570 c0 -16 5 -30 10 -30 6 0 10 14 10 30 0 17 -4 30 -10 30 -5
0 -10 -13 -10 -30z"/>
<path d="M3470 570 c0 -16 5 -30 10 -30 6 0 10 11 10 25 0 34 18 32 23 -2 4
-26 4 -26 6 5 1 28 -2 32 -24 32 -21 0 -25 -5 -25 -30z"/>
<path d="M3535 591 c-3 -5 5 -17 17 -26 l23 -17 -24 7 c-16 5 -21 4 -17 -4 9
-13 43 -15 51 -2 3 5 -5 17 -17 27 -15 11 -17 14 -5 11 9 -4 17 -2 17 3 0 13
-37 13 -45 1z"/>
<path d="M3955 1165 c4 -22 9 -43 11 -47 10 -15 24 -8 24 11 0 30 17 34 24 6
9 -36 20 -31 33 15 11 41 0 57 -13 18 -6 -21 -7 -20 -19 8 l-13 29 -15 -35
c-12 -25 -16 -29 -17 -15 0 11 -5 27 -11 35 -8 11 -9 5 -4 -25z"/>
<path d="M4160 1180 c0 -5 -9 -10 -20 -10 -11 0 -20 -6 -20 -12 0 -10 -3 -10
-9 0 -14 23 -46 10 -46 -18 0 -28 32 -41 46 -18 6 10 9 10 9 1 0 -7 5 -13 10
-13 6 0 10 11 10 25 0 14 5 25 10 25 6 0 10 -11 10 -25 0 -14 5 -25 10 -25 6
0 10 5 10 12 0 9 3 9 12 0 7 -7 20 -12 30 -12 13 0 18 8 18 30 0 17 -4 30 -10
30 -5 0 -10 -12 -10 -26 0 -15 -4 -23 -11 -18 -6 3 -8 15 -6 26 4 14 2 18 -9
14 -8 -3 -14 1 -14 9 0 8 -4 15 -10 15 -5 0 -10 -4 -10 -10z m-60 -40 c0 -11
-4 -20 -9 -20 -14 0 -23 18 -16 30 10 17 25 11 25 -10z"/>
<path d="M4251 1138 c1 -28 2 -30 7 -10 4 13 12 23 17 23 6 0 13 -10 17 -23 5
-20 6 -18 7 10 1 28 -2 32 -24 32 -22 0 -25 -4 -24 -32z"/>
<path d="M4316 1161 c-9 -14 -3 -65 8 -73 20 -14 36 5 36 43 0 32 -4 39 -19
39 -11 0 -22 -4 -25 -9z m29 -31 c-5 -8 -11 -8 -17 -2 -6 6 -7 16 -3 22 5 8
11 8 17 2 6 -6 7 -16 3 -22z m2 -26 c-3 -3 -12 -4 -19 -1 -8 3 -5 6 6 6 11 1
17 -2 13 -5z"/>
<path d="M4019 1018 c-3 -30 4 -64 14 -70 21 -13 37 5 37 43 0 35 -3 39 -25
39 -14 0 -25 -6 -26 -12z m34 -4 c9 -9 -4 -35 -14 -28 -5 3 -9 12 -9 20 0 14
12 19 23 8z"/>
<path d="M4080 999 c0 -16 5 -29 10 -29 6 0 10 11 10 25 0 31 17 33 22 3 3
-26 36 -37 50 -16 7 10 11 10 15 1 2 -7 16 -13 29 -13 20 0 24 5 24 30 0 17
-4 30 -10 30 -5 0 -10 -11 -10 -25 0 -14 -4 -25 -10 -25 -5 0 -10 11 -10 25 0
14 -4 25 -10 25 -5 0 -10 -6 -10 -12 0 -9 -2 -10 -8 -2 -4 7 -26 12 -49 12
-41 1 -43 -1 -43 -29z m80 1 c0 -21 -15 -27 -25 -10 -7 12 2 30 16 30 5 0 9
-9 9 -20z"/>
<path d="M4251 983 c1 -27 3 -41 6 -32 2 10 13 19 24 22 13 3 19 14 19 31 0
21 -5 26 -25 26 -23 0 -25 -3 -24 -47z m34 7 c-5 -8 -11 -8 -17 -2 -6 6 -7 16
-3 22 5 8 11 8 17 2 6 -6 7 -16 3 -22z"/>
<path d="M4080 876 c0 -25 5 -46 10 -46 6 0 10 18 10 39 0 22 -4 43 -10 46 -6
4 -10 -12 -10 -39z"/>
<path d="M4258 899 c-6 -17 3 -69 11 -69 7 0 6 69 -2 76 -3 3 -7 0 -9 -7z"/>
<path d="M3890 880 c0 -5 8 -7 18 -3 11 3 9 0 -6 -11 -26 -20 -21 -36 14 -36
20 0 24 5 24 30 0 25 -4 30 -25 30 -14 0 -25 -4 -25 -10z"/>
<path d="M3950 851 c0 -23 5 -41 10 -41 6 0 10 4 10 9 0 5 9 11 21 14 32 9 22
51 -13 55 -27 3 -28 1 -28 -37z m40 9 c0 -11 -4 -20 -10 -20 -5 0 -10 9 -10
20 0 11 5 20 10 20 6 0 10 -9 10 -20z"/>
<path d="M4021 843 c1 -27 3 -41 6 -32 2 10 13 19 24 22 13 3 19 14 19 31 0
21 -5 26 -25 26 -23 0 -25 -3 -24 -47z m34 7 c-5 -8 -11 -8 -17 -2 -6 6 -7 16
-3 22 5 8 11 8 17 2 6 -6 7 -16 3 -22z"/>
<path d="M4112 860 c0 -19 2 -27 5 -17 2 9 2 25 0 35 -3 9 -5 1 -5 -18z"/>
<path d="M4134 875 c-9 -23 3 -45 26 -45 11 0 20 4 20 10 0 5 -7 7 -15 4 -11
-4 -15 0 -15 16 0 16 4 20 15 16 8 -3 15 -1 15 4 0 16 -40 11 -46 -5z"/>
<path d="M4192 860 c-1 -26 3 -30 27 -30 25 0 27 3 23 30 -3 23 -9 30 -27 30
-18 0 -22 -6 -23 -30z m33 -10 c-3 -5 -12 -10 -18 -10 -7 0 -6 4 3 10 19 12
23 12 15 0z"/>
<path d="M4292 860 c0 -19 2 -27 5 -17 2 9 2 25 0 35 -3 9 -5 1 -5 -18z"/>
<path d="M4314 876 c-10 -26 4 -48 28 -44 17 2 23 10 23 28 0 18 -6 26 -23 28
-13 2 -25 -3 -28 -12z m36 -16 c0 -11 -4 -20 -10 -20 -5 0 -10 9 -10 20 0 11
5 20 10 20 6 0 10 -9 10 -20z"/>
<path d="M4381 858 c1 -28 2 -30 7 -10 4 13 12 23 17 23 6 0 13 -10 17 -23 5
-20 6 -18 7 10 1 28 -2 32 -24 32 -22 0 -25 -4 -24 -32z"/>
<path d="M3960 701 c0 -23 5 -41 10 -41 6 0 10 4 10 9 0 5 9 11 21 14 32 9 22
51 -13 55 -27 3 -28 1 -28 -37z m40 9 c0 -11 -4 -20 -10 -20 -5 0 -10 9 -10
20 0 11 5 20 10 20 6 0 10 -9 10 -20z"/>
<path d="M4031 708 c1 -22 3 -26 6 -13 3 11 10 26 15 33 8 9 6 12 -6 12 -12 0
-16 -9 -15 -32z"/>
<path d="M4067 726 c-10 -26 4 -47 27 -44 15 2 21 10 21 28 0 29 -38 41 -48
16z m36 -2 c8 -8 -3 -34 -14 -34 -5 0 -9 9 -9 20 0 19 11 26 23 14z"/>
<path d="M4134 725 c-9 -23 3 -45 26 -45 11 0 20 5 20 10 0 6 -8 10 -17 8 -11
-2 -18 3 -18 12 0 8 8 14 18 14 9 -1 17 2 17 7 0 15 -40 10 -46 -6z"/>
<path d="M4190 710 c0 -25 4 -30 25 -30 14 0 25 5 25 11 0 6 -7 9 -15 6 -8 -4
-17 -2 -20 3 -4 6 3 10 14 10 12 0 21 7 21 15 0 9 -9 15 -25 15 -21 0 -25 -5
-25 -30z"/>
<path d="M4250 727 c0 -8 10 -19 23 -26 l22 -11 -24 6 c-16 4 -21 3 -17 -5 10
-16 46 -13 46 4 0 7 -8 19 -17 25 -17 11 -17 11 0 6 9 -3 17 -1 17 4 0 6 -11
10 -25 10 -14 0 -25 -6 -25 -13z"/>
<path d="M4310 729 c0 -6 8 -18 18 -26 16 -14 16 -14 0 -9 -10 3 -18 1 -18 -5
0 -6 10 -9 23 -7 31 4 31 52 -1 56 -12 2 -22 -2 -22 -9z"/>
<path d="M3998 624 c-5 -4 -8 -25 -8 -46 0 -37 2 -39 28 -36 35 4 45 46 13 55
-11 3 -21 12 -23 20 -2 8 -6 11 -10 7z m35 -40 c9 -9 -4 -35 -14 -28 -5 3 -9
12 -9 20 0 14 12 19 23 8z"/>
<path d="M4060 570 c0 -25 4 -30 25 -30 14 0 25 5 25 11 0 6 -7 9 -15 6 -8 -4
-17 -2 -20 3 -4 6 3 10 14 10 12 0 21 7 21 15 0 9 -9 15 -25 15 -21 0 -25 -5
-25 -30z"/>
<path d="M4126 591 c-9 -14 -3 -65 8 -73 21 -14 46 12 46 47 0 30 -3 35 -24
35 -14 0 -27 -4 -30 -9z m34 -15 c0 -8 -4 -18 -10 -21 -5 -3 -10 3 -10 14 0
12 5 21 10 21 6 0 10 -6 10 -14z m-3 -42 c-3 -3 -12 -4 -19 -1 -8 3 -5 6 6 6
11 1 17 -2 13 -5z"/>
<path d="M4192 570 c0 -19 2 -27 5 -17 2 9 2 25 0 35 -3 9 -5 1 -5 -18z"/>
<path d="M4210 571 c0 -17 5 -31 10 -31 6 0 10 11 10 25 0 14 5 25 10 25 6 0
10 -11 10 -25 0 -14 5 -25 11 -25 6 0 9 12 7 28 -2 21 -9 28 -30 30 -25 3 -28
0 -28 -27z"/>
<path d="M4280 589 c0 -7 8 -18 18 -26 16 -14 16 -14 0 -9 -10 3 -18 1 -18 -4
0 -12 37 -13 44 -2 10 17 -7 52 -25 52 -11 0 -19 -5 -19 -11z"/>
<path d="M4712 1173 c-10 -27 -11 -28 -17 -5 -13 39 -23 24 -13 -18 12 -47 23
-51 36 -12 l10 27 7 -27 c4 -16 11 -28 15 -28 9 0 30 55 30 78 0 21 -17 3 -22
-23 -4 -18 -6 -17 -16 8 -6 15 -13 27 -16 27 -2 0 -9 -12 -14 -27z"/>
<path d="M4892 1155 c-1 -31 2 -45 7 -36 6 9 11 10 15 2 4 -6 16 -11 27 -11
15 0 19 7 19 31 0 29 -2 31 -29 26 -25 -5 -30 -3 -34 16 -2 12 -5 0 -5 -28z
m48 -17 c0 -18 -2 -20 -9 -8 -6 8 -7 18 -5 22 9 14 14 9 14 -14z"/>
<path d="M4784 1156 c-10 -26 4 -48 28 -44 17 2 23 10 23 28 0 18 -6 26 -23
28 -13 2 -25 -3 -28 -12z m36 -16 c0 -11 -4 -20 -10 -20 -5 0 -10 9 -10 20 0
11 5 20 10 20 6 0 10 -9 10 -20z"/>
<path d="M4851 1138 c1 -22 3 -26 6 -13 3 11 10 26 15 33 8 9 6 12 -6 12 -12
0 -16 -9 -15 -32z"/>
<path d="M4970 1140 c0 -16 5 -30 10 -30 6 0 10 11 10 25 0 34 18 32 23 -2 4
-26 4 -26 6 5 1 28 -2 32 -24 32 -21 0 -25 -5 -25 -30z"/>
<path d="M5036 1161 c-8 -12 4 -70 16 -77 17 -11 38 18 38 52 0 29 -3 34 -24
34 -14 0 -27 -4 -30 -9z m34 -21 c0 -11 -4 -20 -10 -20 -5 0 -10 9 -10 20 0
11 5 20 10 20 6 0 10 -9 10 -20z"/>
<path d="M4726 1021 c-9 -14 -3 -65 8 -73 21 -14 46 12 46 47 0 30 -3 35 -24
35 -14 0 -27 -4 -30 -9z m34 -15 c0 -8 -4 -18 -10 -21 -5 -3 -10 3 -10 14 0
12 5 21 10 21 6 0 10 -6 10 -14z m-3 -42 c-3 -3 -12 -4 -19 -1 -8 3 -5 6 6 6
11 1 17 -2 13 -5z"/>
<path d="M4791 998 c1 -22 3 -26 6 -13 3 11 10 26 15 33 8 9 6 12 -6 12 -12 0
-16 -9 -15 -32z"/>
<path d="M4827 1018 c-8 -26 5 -49 27 -46 15 2 22 11 24 31 3 23 0 27 -22 27
-13 0 -26 -6 -29 -12z m38 -16 c0 -18 -20 -15 -23 4 -3 10 1 15 10 12 7 -3 13
-10 13 -16z"/>
<path d="M4890 1000 c0 -25 4 -30 25 -30 22 0 25 4 24 33 -1 21 -3 25 -6 12
-8 -34 -23 -41 -23 -12 0 15 -4 27 -10 27 -5 0 -10 -13 -10 -30z"/>
<path d="M4950 991 c0 -23 5 -41 10 -41 6 0 10 4 10 9 0 5 9 11 21 14 32 9 22
51 -13 55 -27 3 -28 1 -28 -37z m43 23 c9 -9 -4 -35 -14 -28 -5 3 -9 12 -9 20
0 14 12 19 23 8z"/>
<path d="M5083 909 c-6 -6 -9 -17 -7 -24 3 -7 1 -16 -5 -19 -21 -13 1 -36 34
-36 28 0 32 3 28 20 -3 11 -10 20 -15 20 -6 0 -8 6 -5 14 8 20 -16 39 -30 25z
m17 -59 c0 -5 -4 -10 -10 -10 -5 0 -10 5 -10 10 0 6 5 10 10 10 6 0 10 -4 10
-10z"/>
<path d="M4788 898 c-2 -6 -2 -24 0 -40 4 -27 7 -28 58 -28 53 0 54 0 54 30 0
38 -17 39 -23 3 l-4 -28 -2 28 c-1 22 -6 27 -26 27 -15 0 -25 -5 -24 -12 3
-27 -1 -39 -12 -32 -6 3 -8 17 -5 29 6 24 -9 45 -16 23z m67 -48 c-3 -5 -12
-10 -18 -10 -7 0 -6 4 3 10 19 12 23 12 15 0z"/>
<path d="M4604 875 c-9 -23 3 -45 26 -45 11 0 20 4 20 10 0 5 -7 7 -15 4 -11
-4 -15 0 -15 16 0 16 4 20 15 16 8 -3 15 -1 15 4 0 16 -40 11 -46 -5z"/>
<path d="M4662 860 c-1 -27 3 -30 28 -30 16 0 31 -6 33 -12 4 -9 8 -10 14 -2
4 6 16 13 26 17 29 11 18 51 -15 55 -22 3 -27 -1 -31 -25 l-4 -28 -2 28 c-1
21 -6 27 -24 27 -20 0 -24 -5 -25 -30z m98 0 c0 -11 -4 -20 -10 -20 -5 0 -10
9 -10 20 0 11 5 20 10 20 6 0 10 -9 10 -20z m-65 -10 c-3 -5 -12 -10 -18 -10
-7 0 -6 4 3 10 19 12 23 12 15 0z"/>
<path d="M4910 860 c0 -16 5 -30 10 -30 6 0 10 11 10 25 0 34 18 32 23 -2 4
-26 4 -26 6 5 1 28 -2 32 -24 32 -21 0 -25 -5 -25 -30z"/>
<path d="M4975 881 c-3 -5 5 -17 17 -26 l23 -17 -24 7 c-16 5 -21 4 -17 -4 9
-13 43 -15 51 -2 3 5 -5 17 -17 27 -15 11 -17 14 -5 11 9 -4 17 -2 17 3 0 13
-37 13 -45 1z"/>
<path d="M4746 752 c-4 -7 -16 -12 -26 -12 -13 0 -20 -9 -23 -27 l-4 -28 -2
28 c-1 21 -6 27 -24 27 -20 0 -24 -5 -25 -30 -1 -28 1 -30 39 -30 35 0 39 3
39 25 0 31 17 33 22 3 2 -15 11 -24 26 -26 19 -3 22 1 22 27 0 20 -5 31 -14
31 -8 0 -16 5 -18 12 -3 9 -6 9 -12 0z m21 -54 c-3 -7 -5 -2 -5 12 0 14 2 19
5 13 2 -7 2 -19 0 -25z m-92 2 c-3 -5 -12 -10 -18 -10 -7 0 -6 4 3 10 19 12
23 12 15 0z"/>
<path d="M5078 749 c-2 -7 -2 -25 0 -41 4 -27 7 -29 41 -26 31 3 36 6 36 28 0
18 -6 26 -23 28 -26 4 -29 -15 -4 -34 15 -13 15 -13 -8 -10 -19 2 -25 9 -25
29 0 28 -11 45 -17 26z"/>
<path d="M4570 701 c0 -23 5 -41 10 -41 6 0 10 4 10 9 0 5 9 11 21 14 32 9 22
51 -13 55 -27 3 -28 1 -28 -37z m43 23 c9 -9 -4 -35 -14 -28 -5 3 -9 12 -9 20
0 14 12 19 23 8z"/>
<path d="M4804 725 c-9 -23 3 -45 26 -45 11 0 20 5 20 10 0 6 -8 10 -17 8 -11
-2 -18 3 -18 12 0 8 8 14 18 14 9 -1 17 2 17 7 0 15 -40 10 -46 -6z"/>
<path d="M4862 710 c0 -19 2 -27 5 -17 2 9 2 25 0 35 -3 9 -5 1 -5 -18z"/>
<path d="M4880 700 c0 -38 14 -54 22 -28 3 8 22 12 51 10 46 -2 47 -1 47 28 0
25 -4 30 -25 30 -14 0 -25 -4 -25 -10 0 -5 8 -7 18 -3 14 5 13 3 -3 -10 -18
-14 -21 -14 -27 4 -5 12 -17 19 -33 19 -23 0 -25 -4 -25 -40z m43 24 c9 -9 -4
-35 -14 -28 -5 3 -9 12 -9 20 0 14 12 19 23 8z"/>
<path d="M5010 711 c0 -17 5 -31 10 -31 6 0 10 11 10 25 0 14 5 25 10 25 6 0
10 -11 10 -25 0 -14 5 -25 11 -25 6 0 9 12 7 28 -2 21 -9 28 -30 30 -25 3 -28
0 -28 -27z"/>
<path d="M5130 618 c0 -7 -11 -18 -25 -25 -15 -6 -25 -7 -25 -1 0 5 -10 8 -22
6 -17 -2 -23 -10 -23 -28 0 -18 6 -26 23 -28 12 -2 22 1 22 7 0 6 -7 8 -15 5
-8 -4 -15 -1 -15 5 0 17 37 13 44 -4 3 -8 17 -15 31 -15 22 0 25 4 25 39 0 22
-4 43 -10 46 -5 3 -10 0 -10 -7z m0 -48 c0 -11 -4 -20 -10 -20 -5 0 -10 9 -10
20 0 11 5 20 10 20 6 0 10 -9 10 -20z"/>
<path d="M4590 590 c0 -5 8 -7 18 -4 9 2 7 -1 -6 -7 -29 -16 -23 -33 11 -37
24 -3 27 0 27 27 0 26 -4 31 -25 31 -14 0 -25 -4 -25 -10z m30 -30 c0 -5 -5
-10 -11 -10 -5 0 -7 5 -4 10 3 6 8 10 11 10 2 0 4 -4 4 -10z"/>
<path d="M4650 570 c0 -16 5 -30 10 -30 6 0 10 11 10 25 0 34 18 32 23 -2 4
-26 4 -26 6 5 1 28 -2 32 -24 32 -21 0 -25 -5 -25 -30z"/>
<path d="M4710 570 c0 -16 5 -30 10 -30 6 0 10 11 10 25 0 14 5 25 10 25 6 0
10 -11 10 -25 0 -29 16 -34 23 -7 4 16 5 16 6 -1 2 -31 45 -18 49 16 3 23 0
27 -22 27 -14 0 -26 -5 -26 -12 0 -9 -3 -9 -12 0 -7 7 -22 12 -35 12 -19 0
-23 -5 -23 -30z m105 2 c0 -18 -20 -15 -23 4 -3 10 1 15 10 12 7 -3 13 -10 13
-16z"/>
<path d="M4842 573 c2 -22 9 -29 31 -31 24 -3 27 0 27 27 0 17 -4 31 -10 31
-5 0 -10 -11 -10 -25 0 -14 -4 -25 -10 -25 -5 0 -10 11 -10 25 0 14 -5 25 -11
25 -6 0 -9 -12 -7 -27z"/>
<path d="M4911 568 c1 -28 2 -30 7 -10 4 13 12 23 17 23 6 0 13 -10 17 -23 5
-20 6 -18 7 10 1 28 -2 32 -24 32 -22 0 -25 -4 -24 -32z"/>
<path d="M4974 585 c-9 -23 3 -45 26 -45 11 0 20 5 20 10 0 6 -8 10 -17 8 -11
-2 -18 3 -18 12 0 8 8 14 18 14 9 -1 17 2 17 7 0 15 -40 10 -46 -6z"/>
<path d="M5421 909 c-2 -34 12 -80 23 -76 6 2 13 14 17 28 l6 24 12 -28 c14
-35 28 -27 37 19 8 46 -2 56 -14 13 l-9 -34 -7 33 c-4 17 -11 32 -16 32 -5 0
-12 -15 -16 -32 l-7 -33 -13 35 c-7 19 -13 28 -13 19z"/>
<path d="M5630 906 c0 -9 -9 -16 -20 -16 -16 0 -20 -7 -20 -30 0 -16 5 -30 10
-30 6 0 10 11 10 25 0 14 5 25 10 25 6 0 10 -11 10 -25 0 -14 5 -25 10 -25 6
0 10 6 10 13 0 8 3 7 10 -3 5 -8 12 -11 16 -7 4 3 2 13 -4 20 -9 10 -8 17 1
27 10 10 9 12 -5 7 -12 -4 -18 -1 -18 8 0 7 -4 17 -10 20 -5 3 -10 -1 -10 -9z"/>
<path d="M5527 878 c-8 -26 5 -49 27 -46 15 2 22 11 24 31 3 23 0 27 -22 27
-13 0 -26 -6 -29 -12z m38 -16 c0 -18 -20 -15 -23 4 -3 10 1 15 10 12 7 -3 13
-10 13 -16z"/>
<path d="M5692 860 c0 -19 2 -27 5 -17 2 9 2 25 0 35 -3 9 -5 1 -5 -18z"/>
<path d="M5710 860 c0 -16 5 -30 10 -30 6 0 10 11 10 25 0 14 5 25 10 25 6 0
10 -11 10 -25 0 -29 16 -34 23 -7 3 11 5 8 6 -9 0 -15 7 -29 14 -31 25 -10 37
4 37 43 0 35 -3 39 -25 39 -14 0 -25 -5 -25 -12 0 -9 -3 -9 -12 0 -7 7 -22 12
-35 12 -19 0 -23 -5 -23 -30z m103 14 c9 -9 -4 -35 -14 -28 -5 3 -9 12 -9 20
0 14 12 19 23 8z"/>
<path d="M5486 731 c-8 -12 4 -70 16 -77 17 -11 38 18 38 52 0 29 -3 34 -24
34 -14 0 -27 -4 -30 -9z m34 -21 c0 -11 -4 -20 -10 -20 -5 0 -10 9 -10 20 0
11 5 20 10 20 6 0 10 -9 10 -20z"/>
<path d="M5551 708 c1 -22 3 -26 6 -13 3 11 10 26 15 33 8 9 6 12 -6 12 -12 0
-16 -9 -15 -32z"/>
<path d="M5587 728 c-8 -26 5 -49 27 -46 15 2 22 11 24 31 3 23 0 27 -22 27
-13 0 -26 -6 -29 -12z m38 -16 c0 -18 -20 -15 -23 4 -3 10 1 15 10 12 7 -3 13
-10 13 -16z"/>
<path d="M5650 710 c0 -25 4 -30 25 -30 22 0 25 4 24 33 -1 21 -3 25 -6 12 -8
-34 -23 -41 -23 -12 0 15 -4 27 -10 27 -5 0 -10 -13 -10 -30z"/>
<path d="M5710 701 c0 -23 5 -41 10 -41 6 0 10 4 10 9 0 5 9 11 21 14 32 9 22
51 -13 55 -27 3 -28 1 -28 -37z m43 23 c9 -9 -4 -35 -14 -28 -5 3 -9 12 -9 20
0 14 12 19 23 8z"/>
<path d="M5385 589 c-4 -5 -4 -18 0 -28 5 -16 15 -19 58 -18 48 2 52 4 52 27
0 23 -4 25 -52 27 -29 1 -55 -3 -58 -8z m45 -9 c13 -9 13 -11 0 -20 -22 -15
-30 -12 -30 10 0 22 8 25 30 10z m50 -10 c0 -11 -4 -20 -10 -20 -5 0 -10 9
-10 20 0 11 5 20 10 20 6 0 10 -9 10 -20z"/>
<path d="M5511 568 c1 -28 2 -30 7 -10 4 13 12 23 17 23 6 0 13 -10 17 -23 5
-20 6 -18 7 10 1 28 -2 32 -24 32 -22 0 -25 -4 -24 -32z"/>
<path d="M5575 575 c4 -16 9 -32 11 -34 7 -7 21 12 28 39 6 22 6 23 -7 8 -12
-15 -14 -15 -25 0 -11 14 -12 12 -7 -13z"/>
<path d="M5630 570 c0 -25 4 -30 25 -30 14 0 25 5 25 11 0 6 -7 9 -15 6 -8 -4
-17 -2 -20 3 -4 6 3 10 14 10 12 0 21 7 21 15 0 9 -9 15 -25 15 -21 0 -25 -5
-25 -30z"/>
<path d="M5690 571 c0 -17 5 -31 10 -31 6 0 10 11 10 25 0 14 5 25 10 25 6 0
10 -11 10 -25 0 -14 5 -25 11 -25 6 0 9 12 7 28 -2 21 -9 28 -30 30 -25 3 -28
0 -28 -27z"/>
<path d="M5760 570 c0 -25 4 -30 25 -30 14 0 25 5 25 11 0 6 -7 9 -15 6 -8 -4
-17 -2 -20 3 -4 6 3 10 14 10 12 0 21 7 21 15 0 9 -9 15 -25 15 -21 0 -25 -5
-25 -30z"/>
<path d="M5820 589 c0 -6 8 -18 18 -26 16 -14 16 -14 0 -9 -10 3 -18 1 -18 -5
0 -6 10 -9 23 -7 31 4 31 52 -1 56 -12 2 -22 -2 -22 -9z"/>
<path d="M7202 743 c-10 -27 -11 -28 -17 -5 -13 39 -23 24 -13 -18 12 -47 23
-51 36 -12 l10 27 7 -27 c4 -16 11 -28 15 -28 9 0 30 55 30 78 0 21 -17 3 -22
-23 -4 -18 -6 -17 -16 8 -6 15 -13 27 -16 27 -2 0 -9 -12 -14 -27z"/>
<path d="M7381 758 c0 -11 -9 -18 -21 -18 -16 0 -20 -7 -20 -30 0 -16 5 -30
10 -30 6 0 10 11 10 25 0 14 5 25 10 25 6 0 10 -12 10 -27 0 -20 3 -24 9 -14
6 9 11 10 15 2 4 -6 16 -11 27 -11 15 0 19 7 19 31 0 29 -2 31 -29 26 -25 -5
-30 -3 -34 16 -3 15 -5 16 -6 5z m49 -50 c0 -18 -2 -20 -9 -8 -6 8 -7 18 -5
22 9 14 14 9 14 -14z"/>
<path d="M7277 726 c-10 -26 4 -47 27 -44 15 2 21 10 21 28 0 29 -38 41 -48
16z m36 -2 c8 -8 -3 -34 -14 -34 -5 0 -9 9 -9 20 0 19 11 26 23 14z"/>
<path d="M7460 709 c0 -16 5 -29 10 -29 6 0 10 11 10 25 0 14 5 25 10 25 6 0
10 -11 10 -25 0 -26 15 -34 23 -12 3 6 6 2 6 -10 2 -53 51 -32 51 22 l0 33
-60 0 c-60 0 -60 0 -60 -29z m100 1 c0 -11 -4 -20 -10 -20 -5 0 -10 9 -10 20
0 11 5 20 10 20 6 0 10 -9 10 -20z"/>
<path d="M7626 731 c-9 -14 -3 -65 8 -73 21 -14 46 12 46 47 0 30 -3 35 -24
35 -14 0 -27 -4 -30 -9z m34 -15 c0 -8 -4 -18 -10 -21 -5 -3 -10 3 -10 14 0
12 5 21 10 21 6 0 10 -6 10 -14z m-3 -42 c-3 -3 -12 -4 -19 -1 -8 3 -5 6 6 6
11 1 17 -2 13 -5z"/>
<path d="M7691 708 c1 -22 3 -26 6 -13 3 11 10 26 15 33 8 9 6 12 -6 12 -12 0
-16 -9 -15 -32z"/>
<path d="M7727 726 c-10 -26 4 -47 27 -44 15 2 21 10 21 28 0 29 -38 41 -48
16z m36 -2 c8 -8 -3 -34 -14 -34 -5 0 -9 9 -9 20 0 19 11 26 23 14z"/>
<path d="M7790 710 c0 -25 4 -30 25 -30 22 0 25 4 24 33 -1 21 -3 25 -6 12 -8
-34 -23 -41 -23 -12 0 15 -4 27 -10 27 -5 0 -10 -13 -10 -30z"/>
<path d="M7850 701 c0 -23 5 -41 10 -41 6 0 10 4 10 9 0 5 9 11 21 14 32 9 22
51 -13 55 -27 3 -28 1 -28 -37z m40 9 c0 -11 -4 -20 -10 -20 -5 0 -10 9 -10
20 0 11 5 20 10 20 6 0 10 -9 10 -20z"/>
<path d="M7370 620 c0 -5 5 -10 11 -10 5 0 7 5 4 10 -3 6 -8 10 -11 10 -2 0
-4 -4 -4 -10z"/>
<path d="M7578 624 c-5 -4 -8 -17 -8 -28 0 -16 -3 -17 -9 -8 -14 23 -46 10
-46 -18 0 -18 6 -26 23 -28 13 -2 22 2 22 10 0 10 3 9 10 -2 14 -22 22 -6 18
40 -2 23 -6 38 -10 34z m-28 -54 c0 -11 -4 -20 -9 -20 -14 0 -23 18 -16 30 10
17 25 11 25 -10z"/>
<path d="M7340 611 c0 -5 -9 -11 -21 -14 -32 -9 -22 -51 14 -55 26 -3 27 -1
27 37 0 23 -4 41 -10 41 -5 0 -10 -4 -10 -9z m0 -41 c0 -11 -4 -20 -10 -20 -5
0 -10 9 -10 20 0 11 5 20 10 20 6 0 10 -9 10 -20z"/>
<path d="M7370 570 c0 -26 1 -27 65 -27 68 -1 85 13 48 37 -17 11 -17 11 0 6
9 -3 17 -1 17 4 0 6 -11 10 -25 10 -31 0 -33 -23 -2 -39 22 -11 22 -11 -3 -5
-14 4 -34 13 -45 22 -16 11 -16 13 -2 9 9 -4 17 -2 17 3 0 5 -16 9 -35 8 -31
-1 -35 -4 -35 -28z m56 -17 c-6 -6 -36 9 -36 18 0 5 9 4 20 -3 10 -7 18 -14
16 -15z"/>
<path d="M7605 575 c4 -16 9 -32 11 -34 7 -7 21 12 28 39 6 22 6 23 -7 8 -12
-15 -14 -15 -25 0 -11 14 -12 12 -7 -13z"/>
<path d="M7660 570 c0 -25 4 -30 25 -30 14 0 25 5 25 11 0 6 -7 9 -15 6 -8 -4
-17 -2 -20 3 -4 6 3 10 14 10 12 0 21 7 21 15 0 9 -9 15 -25 15 -21 0 -25 -5
-25 -30z"/>
<path d="M7720 587 c0 -8 10 -19 23 -26 l22 -11 -24 6 c-16 4 -21 3 -17 -5 10
-16 46 -13 46 4 0 7 -8 19 -17 25 -17 11 -17 11 0 6 9 -3 17 -1 17 4 0 6 -11
10 -25 10 -14 0 -25 -6 -25 -13z"/>
<path d="M5048 393 c7 -3 16 -2 19 1 4 3 -2 6 -13 5 -11 0 -14 -3 -6 -6z"/>
<path d="M5450 379 c0 -24 23 -21 28 4 2 10 -3 17 -12 17 -10 0 -16 -9 -16
-21z"/>
<path d="M5702 386 c1 -10 8 -17 13 -17 15 1 12 24 -3 29 -9 3 -13 -2 -10 -12z"/>
<path d="M5800 380 c0 -11 5 -20 10 -20 6 0 10 9 10 20 0 11 -4 20 -10 20 -5
0 -10 -9 -10 -20z"/>
<path d="M5900 379 c0 -24 23 -21 28 4 2 10 -3 17 -12 17 -10 0 -16 -9 -16
-21z"/>
<path d="M6035 390 c-8 -13 4 -32 16 -25 12 8 12 35 0 35 -6 0 -13 -4 -16 -10z"/>
<path d="M6440 840 c0 -5 5 -10 10 -10 6 0 10 5 10 10 0 6 -4 10 -10 10 -5 0
-10 -4 -10 -10z"/>
<path d="M6470 840 c0 -5 5 -10 10 -10 6 0 10 5 10 10 0 6 -4 10 -10 10 -5 0
-10 -4 -10 -10z"/>
<path d="M6500 840 c0 -5 5 -10 10 -10 6 0 10 5 10 10 0 6 -4 10 -10 10 -5 0
-10 -4 -10 -10z"/>
<path d="M6530 840 c0 -5 5 -10 10 -10 6 0 10 5 10 10 0 6 -4 10 -10 10 -5 0
-10 -4 -10 -10z"/>
<path d="M6560 840 c0 -5 5 -10 10 -10 6 0 10 5 10 10 0 6 -4 10 -10 10 -5 0
-10 -4 -10 -10z"/>
<path d="M6600 840 c0 -5 5 -10 10 -10 6 0 10 5 10 10 0 6 -4 10 -10 10 -5 0
-10 -4 -10 -10z"/>
<path d="M6630 840 c0 -5 5 -10 10 -10 6 0 10 5 10 10 0 6 -4 10 -10 10 -5 0
-10 -4 -10 -10z"/>
</g>
</svg>
